<?xml version="1.0" encoding="utf-8"?>
<!DOCTYPE svg PUBLIC "-//W3C//DTD SVG 1.0//EN" "http://www.w3.org/TR/2001/REC-SVG-20010904/DTD/svg10.dtd">
<svg version="1.0" xmlns="http://www.w3.org/2000/svg" width="500px" height="500px" viewBox="0 0 500 500" preserveAspectRatio="xMidYMid meet">
 <g fill="#0c0b0a">
  <path d="M227.5 413.4 c-12.7 -1.6 -13.5 -1.9 -13.5 -3.7 0 -1.7 12.9 -3.7 23.3 -3.7 4.2 0 6.7 -0.4 6.7 -1.1 0 -1.4 10.7 -0.7 21 1.5 4.1 0.9 9 1.6 10.8 1.6 4.2 0 4.6 3.5 0.5 4.4 -12.9 2.8 -31.6 3.2 -48.8 1z"/>
  <path d="M241.5 363.5 c-0.5 -0.2 -6.4 -0.9 -13 -1.5 -6.6 -0.7 -12.7 -1.8 -13.5 -2.5 -1.4 -1.2 -7.6 -3.1 -13.2 -4.2 -1.6 -0.3 -2.8 -0.9 -2.8 -1.3 0 -0.4 -2.8 -2 -6.2 -3.5 -3.5 -1.6 -7.1 -3.9 -8.1 -5.2 -1 -1.2 -2.6 -2.3 -3.6 -2.3 -0.9 0 -2.3 -0.9 -3.1 -2 -0.8 -1.1 -2 -2 -2.7 -2 -0.7 0 -1.3 -0.7 -1.3 -1.5 0 -0.8 -0.4 -1.5 -1 -1.5 -0.8 0 -3.7 -2.7 -7.7 -7.2 -0.6 -0.7 -2.6 -2.6 -4.2 -4.2 -1.7 -1.6 -3.1 -3.5 -3.1 -4.3 0 -0.7 -0.6 -1.6 -1.4 -1.9 -0.8 -0.3 -1.8 -1.9 -2.1 -3.5 -0.4 -1.6 -1 -2.9 -1.4 -2.9 -0.5 0 -1.8 -3 -3 -6.7 -1.7 -5.2 -2.1 -7.8 -1.5 -12 l0.6 -5.4 5.2 0.3 c4.4 0.3 5.1 0.6 5.4 2.5 0.2 1.2 1.2 2.5 2.3 2.8 1 0.4 1.9 1 1.9 1.4 0 0.4 1.8 2.5 3.9 4.8 4 4.2 8.6 6.4 11.8 5.8 8.5 -1.6 14 -3.1 15.1 -4.2 0.7 -0.7 2 -1.3 2.8 -1.3 1.8 0 8.7 -3.5 10.5 -5.3 0.8 -0.7 4.3 -2.8 7.7 -4.7 5.8 -3.1 7.2 -3.4 14.5 -3.3 4.5 0 14.3 0.5 21.7 1.2 15.5 1.4 29.8 1.7 35.3 0.7 2 -0.3 5.3 -0.9 7.3 -1.2 2.1 -0.3 4.9 -1.9 7.2 -4.1 7.1 -6.7 6.5 -6.6 24.2 -5.8 8.8 0.4 16 1.1 16 1.6 0 0.5 0.6 0.9 1.4 0.9 0.7 0 1.6 1 2 2.3 0.9 3.5 0.7 7.7 -0.4 7.7 -0.5 0 -1 1 -1 2.3 0 2.7 -1 4.1 -3.3 5 -1.1 0.4 -2.1 1.6 -2.4 2.7 -0.3 1.1 -1.1 2 -1.8 2 -1.7 0 -5.5 6.1 -5.5 8.9 0 1.1 -0.6 2.1 -1.4 2.1 -0.8 0 -1.8 1.8 -2.4 4.3 -0.6 2.4 -2.1 5.2 -3.2 6.2 -1.1 1 -2 2.4 -2 3.2 0 0.7 -1.5 2.2 -3.2 3.3 -4.3 2.5 -6.8 4.2 -8.2 5.5 -1.4 1.3 -10.2 5.5 -11.6 5.5 -0.5 0 -1 0.5 -1 1 0 0.6 -0.5 1 -1.1 1 -0.6 0 -1.7 0.7 -2.5 1.5 -0.9 0.8 -2.6 1.5 -3.8 1.5 -1.3 0 -3.4 0.8 -4.7 1.8 -1.3 1.1 -3.6 2.2 -5.1 2.6 -1.6 0.3 -2.8 1.1 -2.8 1.6 0 0.6 -0.7 1 -1.5 1 -0.8 0 -1.5 0.5 -1.5 1 0 0.6 -1.8 1 -4.1 1 -3.6 0 -4.2 0.3 -5.2 3 -1 2.6 -1.8 3.1 -5.9 3.6 -2.7 0.4 -5.1 1.1 -5.4 1.5 -0.5 0.8 -10.6 1.1 -12.9 0.4z"/>
  <path d="M364.3 202.2 c-1.7 -1.1 -6.3 -10.2 -6.3 -12.5 0 -1 0.5 -3.8 1.1 -6.3 1 -3.9 1.4 -4.4 4 -4.4 3.3 0 6.9 2.7 6.9 5.1 0 0.9 0.6 1.9 1.4 2.2 1.3 0.5 3.6 7.8 3.6 11.8 0 1.2 -0.8 2.8 -1.7 3.5 -2 1.5 -7.1 1.8 -9 0.6z"/>
 </g>
 <g fill="#161713">
  <path d="M209.3 410.3 c-4.3 -1 -6.3 -1.9 -6.3 -3 0 -1.2 1.1 -1.4 7.3 -0.8 4.9 0.5 11.8 0.1 20.4 -1 15.3 -1.9 28.4 -1.6 42.6 1 7.8 1.5 9.7 2.2 9.5 3.4 -0.3 1.3 -1.8 1.6 -7.3 1.6 -3.9 0 -7.4 -0.2 -8 -0.5 -0.5 -0.3 -1.8 -0.5 -2.7 -0.6 -1 -0.1 -1.9 -0.2 -2 -0.4 -0.3 -0.1 -4 -0.7 -8 -1.2 -1 -0.1 -1.8 -0.6 -1.8 -1.1 0 -0.9 -5.2 -0.6 -6 0.4 -0.3 0.4 -5.3 0.9 -11.3 1.3 -5.9 0.3 -11.8 0.8 -13.2 1.1 -6 1.2 -7.3 1.2 -13.2 -0.2z"/>
  <path d="M226 362.6 c-9.4 -1.8 -26 -6.7 -26 -7.7 0 -0.5 -0.7 -0.9 -1.6 -0.9 -2 0 -9.4 -4.1 -9.4 -5.2 0 -0.4 -0.8 -0.8 -1.8 -0.8 -1 0 -3.2 -1.3 -5 -3 -1.8 -1.6 -3.6 -3 -4 -3 -2.7 -0.1 -19.2 -16.8 -19.2 -19.5 0 -0.6 -0.9 -1.6 -1.9 -2.2 -1.1 -0.7 -2.2 -2.5 -2.6 -4.2 -0.3 -1.6 -1.2 -3.1 -1.9 -3.4 -0.7 -0.3 -1.8 -2.3 -2.6 -4.6 -0.9 -2.8 -1.9 -4.1 -3.2 -4.1 -1 0 -1.8 -0.7 -1.8 -1.5 0 -0.8 -0.4 -1.5 -1 -1.5 -1.7 0 -1.2 -12.6 0.7 -16.5 1.4 -3 2.2 -3.5 5 -3.5 1.8 0 3.3 0.4 3.3 1 0 0.5 1.3 2.3 3 4 2.2 2.3 3 4 3 6.6 0 2.8 -0.3 3.5 -1.5 3 -0.8 -0.3 -2.1 -0.8 -2.8 -1.1 -0.6 -0.3 -1.8 0.4 -2.5 1.6 -1 1.6 -1 1.9 -0.1 1.3 0.9 -0.5 1 -0.2 0.6 0.9 -0.4 1 -0.2 1.7 0.4 1.7 0.6 0 0.9 0.7 0.6 1.5 -0.4 0.8 -0.2 1.7 0.3 2 0.5 0.3 0.6 1.3 0.3 2.2 -0.4 1.1 -0.3 1.4 0.5 0.9 0.8 -0.5 1 -0.2 0.6 0.8 -0.3 0.9 -0.2 1.6 0.4 1.6 0.6 0 1.3 1.4 1.7 3 0.4 1.7 1.1 3 1.6 3 0.5 0 1.4 1.1 1.9 2.5 0.5 1.4 1.6 2.8 2.5 3.1 0.8 0.3 1.3 0.9 1 1.4 -0.2 0.4 0.7 1.3 2 2 1.4 0.7 2.5 1.7 2.5 2.2 0 1.2 5.8 6.8 7 6.8 0.6 0 1 0.7 1 1.5 0 0.8 0.6 1.5 1.3 1.5 0.7 0 1.9 0.9 2.7 2 0.8 1.1 2.2 2 3.1 2 1 0 2.7 1.2 3.8 2.6 1.1 1.4 2.6 2.7 3.3 2.8 2.1 0.4 10.2 4.8 11 6 0.4 0.6 0.8 0.8 0.8 0.4 0 -0.3 2.4 0.2 5.3 1.2 2.9 1 6.5 2 8 2.2 1.4 0.2 3 0.8 3.4 1.3 0.5 0.4 0.2 0.5 -0.6 0 -1 -0.5 -1.2 -0.4 -0.7 0.3 0.5 0.8 1.3 0.9 2.4 0.3 1.1 -0.6 2.4 -0.6 3.5 0 0.9 0.6 1.7 0.7 1.7 0.3 0 -0.3 0.8 0 1.7 0.7 1.4 1.2 1.5 1.2 0.9 0.1 -0.7 -1.1 -0.4 -1.2 1 -0.4 1.1 0.5 2.7 0.8 3.7 0.7 0.9 -0.2 1.7 0 1.7 0.3 0 0.4 2.2 0.6 5 0.5 2.7 -0.1 5 0.3 5 0.8 0 0.5 0.9 0.9 2 0.9 1.1 0 2 -0.4 2 -1 0 -0.5 0.5 -1 1.1 -1 0.5 0 0.7 0.6 0.4 1.3 -0.4 0.6 -0.1 0.5 0.7 -0.3 0.7 -0.8 2 -1.6 2.8 -1.8 0.8 -0.2 1.8 -0.8 2.1 -1.4 0.4 -0.7 0.9 -0.3 1.2 0.8 0.4 1.6 0.5 1.7 0.6 0.2 0.1 -1.9 2.1 -2.6 2.1 -0.8 0 0.6 0.5 1 1.2 1 0.9 0 0.9 -0.3 0 -1.2 -0.7 -0.7 -1.2 -1.8 -1.2 -2.6 0 -1.2 0.3 -1.2 1.7 -0.1 0.9 0.8 1.4 0.9 1 0.3 -0.4 -0.7 0.7 -1.8 2.6 -2.7 1.8 -0.9 3.3 -1.2 3.5 -0.7 0.7 1.9 3.2 1 3.2 -1.1 0 -1.8 0.2 -1.9 1.5 -0.9 1.3 1.1 1.4 1 0.9 -0.4 -0.5 -1.2 -0.2 -1.5 1 -1 0.9 0.3 1.6 0.1 1.6 -0.6 0 -0.6 0.8 -1 1.8 -0.8 0.9 0.1 2.8 -0.5 4.2 -1.5 1.3 -0.9 3.6 -1.8 5 -1.8 2 -0.1 2.1 -0.2 0.6 -0.6 -1.7 -0.4 -1.4 -0.8 1.3 -1.9 1.8 -0.8 3.7 -1.1 4.2 -0.8 0.5 0.3 0.9 0 0.9 -0.5 0 -0.6 0.5 -1.1 1 -1.1 1.5 0 10.3 -4.2 11.8 -5.7 0.7 -0.7 1.8 -1.3 2.3 -1.3 0.6 0 0.8 -0.4 0.5 -0.8 -0.3 -0.5 1 -1.4 2.9 -2 1.8 -0.7 3.9 -2 4.7 -3 1.2 -1.6 1.1 -1.6 -0.7 -0.2 -1.1 0.8 -0.1 -0.6 2.2 -3.2 2.8 -3.1 4.1 -5.3 3.8 -6.7 -0.2 -1.2 0 -2.1 0.4 -2.1 0.8 0 2.5 -5.7 2.2 -7.3 -0.1 -0.5 0.3 -0.6 0.8 -0.3 0.5 0.3 1.6 -0.5 2.5 -1.9 0.9 -1.4 1.3 -2.5 0.9 -2.5 -0.4 0 0.2 -0.6 1.2 -1.4 1.1 -0.8 2.4 -1.2 2.9 -0.9 0.5 0.4 0.6 0.2 0.3 -0.4 -0.4 -0.6 0.5 -2.1 1.8 -3.3 1.4 -1.3 2.5 -1.9 2.5 -1.4 0.1 2.3 2 -2.4 2 -4.9 0 -1.6 0.4 -2.6 0.9 -2.3 0.5 0.4 0.7 -0.3 0.4 -1.3 -0.3 -1.2 -1.1 -1.7 -1.9 -1.4 -0.8 0.3 -1.4 -0.1 -1.4 -1.1 0 -1 -0.6 -1.3 -1.6 -0.9 -1.2 0.4 -1.5 0.1 -1.2 -1.3 0.2 -1.4 1.3 -2 3.8 -2.2 4.9 -0.3 6.1 0.8 6.7 6.2 0.9 7.3 -1.2 12.8 -7.4 19.3 -5.5 5.9 -9.3 11.9 -9.3 14.8 0 4.8 -10.6 15.5 -15.4 15.5 -0.8 0 -1.6 0.4 -1.8 0.8 -0.4 1 -8.5 5.7 -18.5 10.7 -4 2 -7.3 4 -7.3 4.4 0 0.5 -1.3 1.4 -3 2.1 -1.6 0.7 -3 1.6 -3 1.9 0 1.2 -7.2 4.8 -11 5.6 -1.9 0.4 -4.1 1.1 -5 1.6 -5.7 3 -26.6 3.8 -39 1.5z"/>
  <path d="M278.2 293.8 c0.3 -1.4 -1.3 -1.5 -9.9 -0.6 -3.6 0.4 -5.3 0.2 -5.3 -0.6 0 -0.6 -0.5 -0.4 -1 0.4 -0.7 1.1 -1 1.1 -1 0.2 0 -0.7 -0.4 -1 -1 -0.7 -0.5 0.3 -1 0.1 -1 -0.4 0 -0.6 -0.7 -1.1 -1.5 -1.1 -0.8 0 -1.5 -0.7 -1.5 -1.5 0 -1.3 1.5 -1.5 10.8 -1 17 0.9 23.2 1.6 23.2 2.6 0 0.5 -0.7 0.9 -1.5 0.9 -0.8 0 -1.5 0.4 -1.5 0.9 0 0.6 -1.2 0.9 -2.7 0.7 -1.6 -0.1 -3.6 0.1 -4.6 0.6 -1.2 0.6 -1.7 0.5 -1.5 -0.4z"/>
  <path d="M236.7 291.4 c-1 -1.3 -2.7 -2.4 -3.8 -2.4 -2.8 0 -1.8 -2.4 1.1 -2.8 3.7 -0.6 14 1.9 14 3.3 0 1.5 -4.6 2.9 -6.2 1.9 -0.6 -0.4 -1.6 0 -2.2 0.8 -1 1.3 -1.4 1.2 -2.9 -0.8z"/>
  <path d="M139.9 237.1 c-1.7 -2.2 -4.1 -4.1 -5.2 -4.3 -1.2 -0.2 -2.6 -1.2 -3.2 -2.3 -2.2 -4.4 -2.6 -4.7 -4.2 -3.4 -0.8 0.7 -2.6 3.5 -3.9 6.1 -2.4 4.8 -2.6 4.9 -6.7 4.6 l-4.2 -0.3 -0.3 -5.2 c-0.4 -6.2 3.5 -17 9.1 -25.5 2 -3 3.7 -5.8 3.7 -6.2 0 -1.6 11.2 -14.7 16.3 -19 3.8 -3.2 6.3 -4.6 8.3 -4.6 4.5 0 7.4 1.1 7.4 2.8 0 0.8 0.8 2 1.7 2.7 1.2 0.9 1.8 3.1 2.1 7.6 0.3 5.6 0.1 6.8 -2.2 9.9 -5.9 8.1 -7.9 11.5 -9.3 16.2 -1.4 4.9 -1.4 5 1.2 8.4 3.5 4.5 4.3 10.5 2.1 13.9 -1.3 2 -2.5 2.5 -5.6 2.5 -3.3 0 -4.4 -0.6 -7.1 -3.9z"/>
  <path d="M362.9 202.3 c-1.8 -3.2 -4.5 -7.1 -6.1 -8.7 -1.5 -1.5 -2.8 -3.2 -2.8 -3.7 0 -0.5 -0.6 -0.9 -1.3 -0.9 -3.5 0 -5 -14.9 -1.6 -17.1 0.8 -0.5 3.5 -0.9 6.1 -0.9 3.9 0 5.2 0.5 7.7 3.1 6 6 12.1 19.4 12.1 26.6 0 5.2 -2 7.3 -7 7.3 -3.7 0 -4 -0.3 -7.1 -5.7z m8.2 -5 c0.2 0.1 -0.2 -0.3 -0.9 -0.9 -1.1 -1 -1.1 -1.3 0 -1.7 1 -0.4 1 -0.7 -0.1 -1.8 -0.8 -0.8 -1.1 -0.9 -0.8 -0.3 0.4 0.6 -0.5 1.7 -1.8 2.4 -3 1.6 -3.1 2.5 -0.7 3.9 1.2 0.7 2 0.6 2.8 -0.4 0.6 -0.8 1.3 -1.4 1.5 -1.2z m-4.4 -3.7 c-0.7 -1.7 1.6 -3.9 2.8 -2.8 0.5 0.4 0.5 0.1 0.1 -0.6 -0.5 -0.7 -1.5 -1.1 -2.3 -0.8 -0.8 0.3 -1.1 0.2 -0.8 -0.3 0.3 -0.5 0 -1.3 -0.6 -1.7 -0.6 -0.4 -1.6 0.1 -2.1 1 -0.5 0.9 -1.4 1.3 -2 1 -0.7 -0.4 -0.8 -0.2 -0.4 0.5 0.4 0.6 1.2 0.8 1.8 0.5 0.7 -0.5 0.9 -0.1 0.5 0.9 -0.3 1 -0.2 1.7 0.4 1.7 0.6 0 0.7 0.5 0.4 1 -0.3 0.6 0.1 1 1 1 1.1 0 1.5 -0.5 1.2 -1.4z m-0.3 -8.5 c-0.9 -0.9 -3.4 -0.9 -4 0 -0.3 0.5 0.6 0.8 2 0.7 1.4 -0.1 2.3 -0.4 2 -0.7z"/>
  <path d="M352.3 165 c-0.3 -1.1 -0.9 -2 -1.3 -2 -1.1 0 -9 -8.1 -9 -9.2 0 -0.6 -1.6 -2.8 -3.5 -4.9 -1.9 -2.2 -3.5 -4.6 -3.5 -5.4 0 -0.8 -0.4 -1.5 -1 -1.5 -0.5 0 -1 -0.7 -1 -1.5 0 -0.8 -0.4 -1.5 -1 -1.5 -0.5 0 -1 -0.6 -1 -1.3 0 -3.4 -5.4 -8.9 -11.6 -11.9 -3.5 -1.7 -7.5 -4.1 -8.9 -5.4 -1.4 -1.3 -3.3 -2.4 -4.1 -2.4 -0.7 0 -1.4 -0.9 -1.4 -2 0 -1.1 -0.7 -2 -1.5 -2 -1 0 -1.5 -1.1 -1.5 -3.5 l0 -3.5 5.5 0 c5.1 0 6.6 0.4 14.2 3.6 1.7 0.8 4.6 1.7 6.5 2.1 1.8 0.3 4.5 1.9 6.1 3.5 1.5 1.5 3.2 2.8 3.7 2.8 0.6 0 1 0.5 1 1.1 0 0.7 2.7 3.8 5.9 7 3.2 3.3 7.6 8.2 9.7 10.9 2.1 2.8 4.2 5 4.6 5 0.4 0 0.8 0.7 0.8 1.5 0 0.8 0.5 1.5 1 1.5 0.6 0 1 1.4 1 3 0 1.7 0.5 3 1.1 3 1.4 0 0.6 8.3 -1.2 12.3 -1 2.3 -1.9 2.7 -5.2 2.7 -3 0 -4 -0.4 -4.4 -2z"/>
 </g>
 <g fill="#1e1816">
  <path d="M277 409.9 c0 -1.5 0.7 -1.9 3.5 -1.9 2.4 0 3.5 0.5 3.5 1.5 0 0.8 -0.3 1.6 -0.7 1.6 -5.6 0.9 -6.3 0.7 -6.3 -1.2z"/>
  <path d="M215 358.6 c0 -2.3 0.2 -2.4 3.5 -1.3 1.9 0.6 3.5 1.6 3.5 2.4 0 0.8 -1.3 1.3 -3.5 1.3 -3 0 -3.5 -0.3 -3.5 -2.4z"/>
  <path d="M158 319.4 c0 -3.9 0.9 -3.8 4 0.6 l2.1 3 -3 0 c-2.9 0 -3.1 -0.3 -3.1 -3.6z"/>
  <path d="M153 311.5 c0 -3.3 0.1 -3.4 2 -2.3 1.1 0.7 2 1.6 2 2 0 0.3 0.3 1.3 0.6 2.2 0.5 1.2 0 1.6 -2 1.6 -2.3 0 -2.6 -0.4 -2.6 -3.5z"/>
  <path d="M173.6 308.3 c-2.7 -0.8 -5.8 -2.5 -6.8 -3.9 -1.1 -1.3 -2.6 -2.4 -3.4 -2.4 -0.8 0 -1.2 -0.5 -0.9 -1.1 0.4 -0.6 -0.3 -1.3 -1.5 -1.6 -1.4 -0.4 -1.7 -0.8 -1 -1.3 0.7 -0.4 0 -1.2 -1.9 -2 -3 -1.2 -4.2 -3 -2 -3 0.8 0 0.8 -0.5 -0.1 -1.5 -0.7 -0.8 -1.8 -1.5 -2.5 -1.5 -1.6 0 -2.1 -19.5 -0.5 -20.5 0.5 -0.3 1 -1.5 1 -2.5 0 -1.1 0.9 -2.4 1.9 -3 1.1 -0.5 2.3 -2 2.7 -3.2 1.2 -3.9 3.8 -6.7 6.2 -6.8 1.2 0 2.2 -0.4 2.2 -1 0 -0.5 1.8 -1 4 -1 2.1 0 4.3 -0.6 4.7 -1.3 1.1 -1.6 5.8 -3.7 8.6 -3.7 6.4 0.1 14.7 5.1 14.7 9 0 2.5 2.1 4 5.7 4 2.3 0 3.3 0.5 3.3 1.5 0 1 1 1.5 3.3 1.5 2.5 0 3.5 0.6 4.4 2.7 0.7 1.5 1.3 3.3 1.3 4 0 0.8 1.3 1.3 3.6 1.3 4.3 0 10 2.5 10.8 4.8 0.4 0.9 1.5 3.3 2.6 5.2 3.3 6 2.7 7.6 -2.7 8.3 -2.7 0.4 -5.5 0.8 -6.3 1 -2.3 0.5 -12.2 5.8 -13.8 7.3 -1.9 2 -8.8 5.4 -10.7 5.4 -0.8 0 -1.5 0.5 -1.5 1.1 0 0.5 -0.4 0.7 -1 0.4 -0.5 -0.3 -1 -0.2 -1 0.2 0 0.8 -6.4 2.5 -14.4 3.9 -1.6 0.3 -3.2 0.7 -3.5 0.8 -0.3 0.2 -2.8 -0.3 -5.5 -1.1z"/>
  <path d="M283 291.1 c0 -1.2 0.6 -2.1 1.5 -2.1 0.9 0 1.5 -0.9 1.5 -2.1 0 -1.1 0.8 -2.3 1.8 -2.5 1.7 -0.5 4.2 -4.7 4.2 -7.2 0 -1 2 -1.4 8.8 -1.4 32.8 -0.1 38.7 0.6 38 4.1 -0.4 1.7 -0.3 1.7 -17 0.7 -9.5 -0.6 -9.8 -0.5 -13 2.2 -1.8 1.5 -3.9 3.4 -4.6 4.4 -1.3 1.8 -5.8 3.5 -11.2 4.2 -1.9 0.2 -5 0.7 -6.7 1.1 -2.9 0.7 -3.3 0.5 -3.3 -1.4z"/>
 </g>
 <g fill="#22201c">
  <path d="M276 411 c-0.8 -0.4 -3.7 -1 -6.5 -1.4 -6.4 -0.7 -7.7 -1 -9.1 -1.9 -1.2 -0.7 -19.6 -0.2 -24.4 0.7 -14.3 2.5 -23.7 2.6 -32 0.4 -3.6 -1 -6.8 -1.8 -7.2 -1.8 -0.5 0 -0.8 -0.9 -0.8 -1.9 0 -1.8 0.9 -1.9 19.3 -1.8 14.3 0.2 19.8 -0.1 20.9 -1.1 0.8 -0.6 5.6 -1.5 10.7 -1.9 9.5 -0.6 14.6 0.1 26.8 3.8 3.4 1 8.9 1.9 12.3 1.9 4.6 0 6 0.3 6 1.5 0 2.3 -13 5.2 -16 3.5z"/>
  <path d="M223.5 366 c-4.9 -0.8 -11.2 -2.6 -14 -3.8 -12.2 -5.5 -24.5 -12 -30.4 -16 -7.2 -4.8 -12.3 -7.2 -15.6 -7.2 -3.1 0 -8.3 -6.3 -9.1 -11 -0.9 -4.7 -4.1 -11 -5.7 -11 -2.9 0 -13.4 -9.9 -14.3 -13.6 -0.4 -1.4 -0.4 -5.3 -0.2 -8.7 0.3 -5 1 -7 3.5 -10.5 1.7 -2.3 3.6 -6.5 4.3 -9.2 0.7 -2.8 1.6 -5 2.1 -5 0.5 0 0.9 -0.7 0.9 -1.5 0 -0.8 0.5 -1.5 1 -1.5 0.6 0 1 -0.7 1 -1.7 0 -0.9 1.3 -3.7 2.9 -6.2 1.6 -2.5 3.2 -6.2 3.6 -8.1 0.8 -4.5 3.3 -5.7 15 -7.1 5.6 -0.7 9.4 -1.7 10.2 -2.6 2.5 -3.2 14.3 -2.4 14.3 0.9 0 0.5 1.1 2.4 2.4 4.1 1.3 1.8 2.6 5.3 3 8.1 0.3 2.7 0.8 5.2 1.1 5.4 0.3 0.3 3 0.4 5.9 0.3 4.2 -0.1 6.7 0.4 10.5 2.4 2.8 1.4 6.4 2.5 8 2.5 2.1 0 4 1.1 6.5 3.8 2 2 3.6 4.2 3.6 4.8 0 2.4 6 6.4 9.6 6.4 1.9 0 4.5 0.5 5.6 1.1 1.2 0.6 4.3 1.1 6.9 1 2.6 0 6.5 0.5 8.6 1.3 5.5 1.9 16.3 0.7 16.3 -1.8 0 -0.8 1.4 -2 3 -2.8 1.7 -0.7 3 -1.6 3 -2 0 -0.5 0.7 -0.8 1.5 -0.8 0.8 0 1.5 -0.4 1.5 -0.8 0 -1.3 6.1 -3.1 13.1 -3.8 5.1 -0.5 7.2 -0.3 9.8 1 2.4 1.3 7.1 1.9 18.7 2.3 18.9 0.7 18.8 0.7 18.2 10.8 -0.4 5.4 -1.2 8.4 -3.4 12.4 -1.5 2.9 -3.4 5.5 -4.1 5.8 -0.6 0.3 -2.9 2.8 -5.1 5.6 -3.1 4.2 -4.1 6.7 -5.1 12.5 -0.7 3.9 -1.7 7.2 -2.2 7.2 -0.5 0 -0.9 0.6 -0.9 1.4 0 0.8 -1.8 3.4 -4 5.7 -2.2 2.3 -4.1 4.5 -4.2 4.8 -0.8 1.7 -11.3 9.1 -13 9.1 -1 0 -5.5 1.8 -10.1 3.9 -9.2 4.4 -29.2 11.1 -33 11.1 -1.3 0 -4 0.6 -5.9 1.4 -4.6 1.9 -23.2 1.7 -35.3 -0.4z m32 -6.2 c2.2 -0.6 4.5 -1.1 5 -1.2 0.6 -0.1 1.5 -0.4 2 -0.8 0.6 -0.3 2.6 -0.9 4.5 -1.3 3.8 -0.8 11 -4.4 11 -5.6 0 -0.3 1.4 -1.2 3 -1.9 1.7 -0.7 3 -1.9 3 -2.6 0 -0.8 0.3 -1.3 0.8 -1.2 1.6 0.3 24.4 -11.8 25 -13.4 0.2 -0.4 1 -0.8 1.8 -0.8 1.7 0 4.8 -1.7 8.2 -4.5 2.8 -2.3 7.6 -9.4 6.8 -10.2 -1.1 -1.1 4.5 -10 9.7 -15.5 3.2 -3.4 5.9 -7.4 6.6 -9.7 1.2 -4.1 0.6 -9.5 -1 -8.5 -0.5 0.3 -0.9 0.1 -0.9 -0.5 0 -0.5 -1 -0.8 -2.1 -0.6 -1.2 0.2 -3.1 -0.1 -4.3 -0.7 -1.1 -0.6 -4.8 -1.2 -8.1 -1.4 -3.3 -0.1 -7.7 -0.5 -9.8 -0.8 -3.2 -0.4 -4.3 0 -7.5 2.7 -2 1.8 -3.1 2.4 -2.3 1.4 1.2 -1.5 1.2 -1.7 -0.3 -1.1 -0.9 0.3 -1.6 0.1 -1.6 -0.6 0 -0.6 -0.4 -0.9 -0.9 -0.5 -0.5 0.3 -1.2 0.1 -1.6 -0.4 -0.4 -0.7 -1.5 -0.6 -3.1 0.1 -2 1 -2.7 0.9 -3.6 -0.3 -0.8 -1.1 -0.9 -1.1 -0.5 0.3 0.3 0.9 -0.1 2.2 -0.9 2.8 -0.8 0.7 -1.4 1.8 -1.4 2.5 0 0.7 -0.9 1.5 -2.1 1.8 -1.2 0.3 -1.9 1 -1.6 1.4 0.3 0.5 0.2 1.5 -0.3 2.3 -1 1.6 -16 1.7 -37.5 0.1 -14.6 -1.1 -17.1 -1.6 -20 -4.4 -1.1 -1.1 -1.3 -1.6 -0.5 -1.2 1.2 0.7 1.3 0.6 0.3 -0.7 -0.7 -0.8 -1.1 -1.7 -0.8 -2 0.9 -0.9 -1.8 -2.6 -5.4 -3.5 -1.9 -0.5 -3.6 -1.4 -3.9 -2.1 -0.6 -1.9 2.9 -1.4 4.4 0.5 0.7 1 1.6 1.5 2 1 1.1 -1.1 -2.6 -3.5 -6.4 -4.3 -3.9 -0.8 -5 0 -3.2 2.1 1.1 1.3 0.8 1.3 -2.1 0.3 -4 -1.3 -6.9 -3.6 -6.9 -5.4 0 -0.7 -0.8 -1.8 -1.7 -2.4 -1.7 -1.1 -1.7 -1.1 0 -0.6 0.9 0.3 1.7 0.1 1.7 -0.4 0 -1.7 -2.1 -2.2 -3.7 -0.8 -1.4 1.1 -1.5 1.1 -0.9 0 0.6 -1 0.3 -1.3 -1 -1.1 -2.6 0.4 -6.4 -1 -6.4 -2.3 0 -0.7 0.5 -0.6 1.5 0.2 0.8 0.6 2 1 2.7 0.7 0.9 -0.4 0.8 -0.6 -0.3 -0.6 -1.8 -0.1 -5.3 -3.6 -5.5 -5.4 0 -0.7 -0.2 -1.8 -0.2 -2.4 -0.1 -0.7 -0.9 -1.3 -1.7 -1.3 -0.9 0 -1.8 -0.6 -2.1 -1.4 -0.3 -0.8 -1.4 -1.3 -2.5 -1.1 -1 0.2 -1.9 -0.1 -1.9 -0.6 0 -0.6 -0.4 -0.7 -1 -0.4 -0.5 0.3 -1 0.2 -1 -0.4 0 -0.6 -0.7 -0.8 -1.5 -0.5 -0.8 0.4 -1.2 1.1 -0.8 1.7 0.4 0.6 -0.2 0.8 -1.5 0.5 -1.2 -0.3 -2.3 0 -2.5 0.7 -0.3 0.6 -2.6 1.8 -5.1 2.5 -2.6 0.7 -4.9 1.7 -5.3 2.3 -0.4 0.6 0 0.8 0.9 0.5 0.9 -0.4 1.5 0 1.5 0.8 0 0.9 -1.1 1.4 -3.1 1.4 -2.4 0 -2.8 -0.3 -1.6 -1.1 1.2 -0.8 1.2 -1 -0.5 -0.7 -1.2 0.2 -2.8 2.1 -4.2 5.1 -1.3 2.6 -2.5 4.7 -2.8 4.7 -0.4 0 -0.3 -0.6 0.1 -1.2 0.4 -0.7 0.4 -1 0 -0.6 -0.4 0.3 -0.7 0.8 -0.5 1 0.1 0.2 -0.4 1.4 -1.1 2.8 -1.4 2.5 -1.7 11 -0.5 13 0.3 0.5 0 1 -0.7 1 -0.9 0 -0.9 0.3 0.2 1 1.3 0.8 1.3 1.1 0.1 1.9 -1.1 0.7 -1 1.1 0.5 2.1 1.7 1 1.6 1.1 -0.6 0.6 -1.4 -0.3 -3.2 -0.6 -4 -0.6 -1.2 0 -1.2 -0.2 -0.1 -0.9 1.3 -0.9 0.9 -1.3 -2.1 -2.4 -1.2 -0.4 -1.5 -0.2 -1.1 0.8 0.3 0.8 -0.1 1.7 -0.9 2 -0.8 0.3 -1.3 2.1 -1.3 4.4 0 2.2 0.3 3.7 0.7 3.5 0.7 -0.5 1.2 1 0.9 2.8 0 0.5 0.2 0.7 0.7 0.7 2.6 -0.4 4.1 0.3 3.6 1.6 -0.4 0.8 -0.2 1.5 0.3 1.5 0.5 0 1 1 1 2.2 0.1 1.3 1 2.9 2 3.6 1 0.7 1.7 1.4 1.5 1.5 -1.4 0.9 8.5 15 13.7 19.5 3.7 3.3 17.2 13.4 20.1 15.2 9.6 5.6 23.8 11.1 32.5 12.5 1.7 0.2 4.8 0.7 7 1.1 2.2 0.3 4.1 0.7 4.3 0.9 0.8 0.8 17.2 0.2 20.7 -0.7z"/>
  <path d="M138.5 244.3 c-3.3 -1.8 -6.4 -5.2 -6.5 -7 0 -0.7 -0.4 -1.3 -1 -1.3 -0.5 0 -1 -1 -1 -2.3 0 -1.3 -0.6 -3.2 -1.4 -4.2 -1.2 -1.7 -1.5 -1.8 -3 -0.3 -0.9 0.9 -1.6 2.5 -1.7 3.5 0 1 -0.8 3.2 -1.8 4.8 -1.5 2.6 -2.3 3 -6.2 3 l-4.4 0 -0.3 -5.2 c-0.3 -4.7 -0.1 -5.3 1.7 -5.3 1.2 0 2.1 0.8 2.3 2.2 0.5 3.8 2.6 3.1 5.1 -1.9 3.5 -6.8 6.1 -8.9 9.5 -7.7 1.4 0.5 3.2 2 3.8 3.3 0.6 1.2 1.7 2.8 2.4 3.4 1 0.9 1.1 0.9 0.6 0 -0.4 -0.7 -0.4 -1.3 -0.1 -1.3 1.1 0 6.4 4.7 5.9 5.2 -0.2 0.3 0.8 1.5 2.2 2.9 l2.6 2.4 1.8 -2.2 c2 -2.5 1.7 -5.5 -0.9 -7.5 -1.5 -1.2 -1.5 -1.1 -0.1 0.7 1.4 1.9 1.4 1.9 -0.2 0.6 -1 -0.7 -1.6 -1.7 -1.3 -2.1 0.3 -0.5 -0.3 -2.1 -1.2 -3.8 -1.6 -2.8 -1.6 -3.2 0.5 -9.6 2.1 -6.2 3.8 -9.3 9.7 -17.5 2.6 -3.5 3.3 -8.1 1.4 -8.1 -0.6 0 -0.9 -0.6 -0.6 -1.4 0.3 -0.7 -0.4 -2.1 -1.4 -3 -1.1 -0.9 -1.7 -2 -1.5 -2.5 0.3 -0.5 -0.4 -1.1 -1.6 -1.4 -1.6 -0.5 -3.6 0.6 -7.6 4 -5.1 4.4 -16.2 17.3 -16.2 19 0 0.4 -1.8 3.5 -4 6.8 -2.2 3.2 -5 8.7 -6.2 12.2 -2.8 7.8 -5.3 8.6 -4.6 1.4 0.3 -3.4 2.2 -7.9 6.3 -15.4 3.2 -5.9 6.5 -11.4 7.5 -12.4 0.9 -1 2.1 -2.6 2.6 -3.5 1.9 -3.4 20.7 -23.4 25.8 -27.5 0.8 -0.7 3.8 -1.3 6.6 -1.3 4.8 0 5 0.1 5 2.9 0 3.8 -3 13.1 -4.3 13.1 -0.6 0 -0.7 2.9 -0.3 7.8 0.5 6.4 0.4 8.1 -1.1 10.3 -7.2 10.7 -9.1 13.8 -10.1 16.8 -1.6 4.6 -1.6 4.5 2.1 8.7 3 3.5 3.2 4.2 3.1 10.8 -0.2 6.3 -0.5 7.3 -2.9 9.3 -3.2 2.8 -10.4 3.1 -15 0.6z"/>
  <path d="M360.8 210.3 c-1.1 -2.7 -2.4 -5 -2.8 -5.3 -0.4 -0.3 -1.1 -1.5 -1.4 -2.8 -0.4 -1.2 -1.8 -3.4 -3.2 -4.9 -1.3 -1.4 -3.6 -5.1 -5 -8.1 -1.4 -3 -3.4 -6.4 -4.5 -7.5 -2.1 -2.3 -3.4 -9.4 -2.4 -12.9 0.4 -1.2 1.6 -3.1 2.6 -4.1 1.9 -1.8 2.6 -4.7 1.1 -4.7 -0.4 0 -1.5 -1.5 -2.5 -3.2 -3.3 -6 -25.3 -27.8 -28.2 -27.8 -0.8 0 -1.5 -0.3 -1.5 -0.8 0 -0.4 -2.6 -2.2 -5.9 -4 -9.6 -5.2 -13.2 -12.7 -9.6 -19.9 2.5 -5 3.7 -5.5 8.3 -3.9 14.7 5.2 35.9 17.8 40.7 24.2 1.6 2.1 3.3 4 3.7 4.2 0.4 0.2 0.8 0.9 0.8 1.5 0 1 2.4 4.3 7.2 9.7 0.8 0.9 2.9 4 4.8 7 3 4.8 3.4 6.5 3.9 14.3 0.4 4.9 1.1 9.1 1.8 9.5 1.3 0.8 5.6 10 8.4 18.1 1 3 1.9 8.1 1.9 11.4 0 5.4 -0.3 6.2 -3.5 9.4 -1.9 1.9 -3.5 3.9 -3.5 4.4 0 0.5 -2.1 0.9 -4.6 0.9 -4.4 0 -4.5 -0.1 -6.6 -4.7z m11.6 -6.9 c0.9 -0.8 1.6 -2.1 1.6 -2.7 0 -2 -3.7 -11.1 -6.6 -16.3 -3.6 -6.5 -6.1 -8.5 -10.1 -8.1 -1.8 0.2 -3.3 -0.2 -3.4 -0.8 -0.1 -1.5 -1.7 2.7 -1.8 4.8 -0.1 0.9 1.2 2.5 2.7 3.5 1.6 0.9 2.7 2.2 2.5 2.8 -0.2 0.6 0.9 2.4 2.5 4 1.6 1.6 4.3 5.5 6.1 8.7 3.5 6.1 4.1 6.5 6.5 4.1z m-13.6 -42.1 c2 -5.3 2.2 -6.4 1.2 -5.8 -0.8 0.5 -1.5 -3.1 -1.1 -5.7 0 -0.5 -0.3 -0.8 -0.9 -0.8 -0.5 0 -1 -0.7 -1 -1.5 0 -0.8 -0.4 -1.5 -0.8 -1.5 -0.4 0 -2.4 -2.1 -4.4 -4.8 -5.7 -7.5 -13.8 -15.3 -15 -14.6 -0.6 0.4 -0.8 0.3 -0.4 -0.4 0.3 -0.6 0.2 -1.3 -0.4 -1.7 -0.6 -0.4 -0.8 -1.1 -0.4 -1.6 0.3 -0.5 0.2 -0.8 -0.3 -0.7 -0.4 0.2 -2.2 -1.1 -3.8 -2.7 -1.9 -2 -3.9 -3 -5.7 -3 -1.5 0.1 -2.4 -0.3 -2.2 -0.7 0.3 -0.4 0 -0.8 -0.6 -0.8 -0.7 0 -2.6 -0.6 -4.3 -1.4 -7 -3 -8.9 -3.6 -10.5 -3.5 -1 0 -1.2 0.3 -0.5 0.5 0.7 0.3 2.2 2.1 3.4 4 1.3 2.1 2.7 3.3 3.5 3 0.8 -0.3 1.3 0 1.1 0.6 -0.1 0.6 2.8 2.6 6.5 4.4 3.7 1.9 7.5 4.5 8.4 5.9 0.9 1.4 2.1 2.2 2.7 1.8 0.6 -0.3 0.7 -0.1 0.3 0.6 -0.4 0.6 0.2 2.3 1.3 3.7 1.1 1.5 1.8 3 1.5 3.5 -0.3 0.5 0 0.9 0.5 0.9 0.6 0 1.1 0.7 1.1 1.5 0 0.8 1.6 3.2 3.5 5.4 1.9 2.1 3.5 4.3 3.5 4.9 0 0.5 1.9 2.8 4.1 5.1 4.1 4.1 8.2 5.4 9.2 2.9 0.4 -1 0.6 -1 0.6 -0.1 0.1 0.6 -0.8 1.8 -1.9 2.6 -1.1 0.8 -1.7 1.7 -1.3 2 1.2 1.3 2.1 0.7 3.1 -2z"/>
 </g>
 <g fill="#2a2a26">
  <path d="M280.5 408.9 c-3.3 -0.4 -6.7 -0.9 -7.5 -1.1 -3 -0.9 -10.6 -3 -13.8 -3.8 -4.7 -1.2 -17.5 -0.2 -20.2 1.5 -0.8 0.6 -10.7 1.1 -22 1.1 -19.9 0.1 -20.7 0.1 -27.4 -2.5 -3.8 -1.4 -7.1 -3.2 -7.4 -3.9 -0.5 -1.5 3.8 -1.6 23.5 0 12.2 0.9 16.2 0.9 19.5 -0.2 2.4 -0.6 4.6 -1.7 5 -2.4 0.5 -0.7 6.4 -1.2 17.8 -1.4 14.5 -0.3 18.6 0 27 1.8 10.6 2.2 22 6.7 22 8.7 0 2.1 -7.6 3.1 -16.5 2.2z"/>
  <path d="M240 376.9 c0 -0.8 -1.9 -1 -6.6 -0.6 -11.9 1.1 -35.2 -3.6 -47.8 -9.7 -3.9 -1.9 -9 -3.8 -11.3 -4.1 -2.4 -0.4 -4.3 -1.1 -4.3 -1.6 0 -0.5 -1.9 -0.9 -4.2 -0.9 -4.7 -0.1 -15.1 -4.1 -21.1 -8.3 -8.5 -5.8 -16.7 -19.9 -20.7 -35.7 -1.2 -4.6 -2.8 -9.7 -3.7 -11.3 -2.9 -5.7 -9.4 -30.4 -10.4 -39.7 -1.3 -13.1 -1 -31.5 0.7 -39.3 3.7 -16.5 16.6 -37.1 33.4 -53 9.9 -9.4 15.9 -12.9 23.7 -13.5 l5.3 -0.4 0 3.1 c0 3.2 -0.2 3.8 -3.8 10.8 -2.6 5 -2.8 9.8 -0.6 15.3 1.1 2.8 1.4 5.4 1 8.5 -0.6 3.8 -1.4 5 -5.4 8.2 -2.6 2 -5.9 5 -7.4 6.7 -2.6 2.8 -2.6 3.1 -1.1 6 0.8 1.7 2.8 4.5 4.4 6.1 1.9 2 3.3 5.1 4.3 9.4 1.6 7 2.1 7.8 5.1 8.2 2.3 0.3 8.6 -2.7 9.8 -4.7 1 -1.8 11.1 -1.9 12.4 -0.1 2.2 2.9 4.4 14.7 2.7 14.7 -0.7 0 -4.9 -5.2 -4.8 -6 0.1 -0.3 -0.7 -1.1 -1.7 -1.8 -1.5 -1 -2.4 -0.8 -5.5 1.3 -2.3 1.6 -4.5 2.3 -5.6 1.9 -1 -0.3 -2.4 -0.1 -3.1 0.4 -0.7 0.5 -3.6 0.9 -6.5 0.9 -3.4 0.1 -5.9 0.6 -7.1 1.7 -1 0.9 -2.1 1.3 -2.6 0.9 -0.4 -0.5 -0.4 0.2 -0.1 1.5 0.5 1.4 0.3 2.2 -0.4 2.2 -0.6 0 -0.9 0.4 -0.6 0.8 0.3 0.5 -0.4 2.3 -1.5 4.1 -1.1 1.8 -1.4 2.9 -0.7 2.5 0.7 -0.4 0.1 0.4 -1.4 1.9 -1.6 1.5 -2.8 3.7 -2.8 5.1 0 1.4 -0.9 3.1 -1.9 3.8 -1.1 0.8 -2.2 2.5 -2.5 3.9 -0.2 1.3 -0.9 3.6 -1.5 5.2 -0.6 1.5 -0.8 2.7 -0.4 2.7 0.4 0 -0.2 0.7 -1.3 1.5 -1 0.8 -1.5 1.5 -1 1.5 0.4 0 -0.2 0.8 -1.5 1.9 -1.8 1.4 -2.3 3 -2.5 7 -0.2 2.8 0.2 5.1 0.7 5.1 0.6 0 0.7 0.5 0.4 1 -0.3 0.6 -0.1 1 0.6 1 0.7 0 1 0.3 0.6 0.6 -0.5 0.6 2.6 3.9 7 7.5 1 0.8 2.5 1.3 3.2 1.1 0.8 -0.3 1.1 0 0.7 0.7 -0.4 0.6 -0.1 1.1 0.8 1.1 1.8 0 5.1 6 6 11 0.3 2 2 5.3 3.8 7.4 2.6 3.2 3.6 3.7 6.4 3.4 1.8 -0.2 3.1 -0.1 2.8 0.3 -0.2 0.4 0.8 1.1 2.4 1.7 1.5 0.5 5.6 2.9 9.2 5.3 3.6 2.5 11 6.7 16.5 9.3 5.5 2.7 11.2 5.6 12.8 6.3 1.5 0.8 2.7 1.2 2.7 0.8 0 -0.3 1 0.1 2.3 0.9 1.2 0.8 4.7 1.7 7.7 2.1 3 0.3 6.6 0.8 8 1 2.5 0.5 20.1 0.9 21 0.5 1.3 -0.5 4.9 -1.2 9 -1.9 4.2 -0.8 5.2 -1.1 9.8 -2.8 0.9 -0.3 2 -0.7 2.5 -0.8 0.4 -0.2 0.9 -0.4 1.2 -0.5 0.3 -0.1 0.8 -0.3 1.3 -0.4 11.8 -3.1 14.5 -4.3 13.6 -5.8 -0.4 -0.7 -0.3 -0.8 0.5 -0.4 0.6 0.4 4.1 -0.6 7.7 -2.3 3.6 -1.7 7 -2.8 7.5 -2.5 0.5 0.3 0.6 -0.3 0.2 -1.3 -0.6 -1.5 -0.4 -1.6 0.9 -0.6 1.2 1.1 1.8 1 3.2 -0.5 0.9 -1 1.3 -2.2 0.9 -2.6 -0.4 -0.4 0 -0.4 0.9 -0.1 1 0.4 2.1 -0.1 3 -1.4 0.8 -1.2 1.8 -1.8 2.1 -1.4 0.4 0.3 0.7 0.2 0.7 -0.3 0 -0.6 1.8 -2.9 4 -5.3 2.2 -2.3 4 -4.9 4 -5.7 0 -0.8 0.5 -1.4 1.1 -1.4 0.6 0 0.9 -0.6 0.6 -1.4 -0.3 -0.7 -0.2 -1.7 0.3 -2.2 0.5 -0.5 1.1 -3.1 1.4 -5.7 0.3 -3.7 1.5 -6.2 4.6 -10.2 2.3 -2.9 4.7 -5.5 5.3 -5.8 2.1 -0.8 6.6 -10.2 7.2 -14.9 0.8 -6.4 -0.8 -7.7 -8.7 -7.6 -10.6 0.1 -25.2 -1.4 -28.1 -2.9 -1.6 -0.8 -3.6 -1.1 -4.5 -0.7 -1 0.4 -2.8 0.8 -4.2 0.9 -3.7 0.2 -8 1.6 -8 2.6 0 0.5 -0.7 0.9 -1.5 0.9 -0.8 0 -1.5 0.5 -1.5 1 0 0.6 -0.5 1 -1 1 -0.6 0 -2.5 1.5 -4.3 3.3 -2.7 2.6 -4 3.2 -7.2 3.1 -2.2 -0.1 -5.2 0.2 -6.8 0.7 -1.8 0.5 -4 0.3 -6.5 -0.8 -2 -0.9 -5.5 -1.5 -7.7 -1.4 -2.2 0 -5.6 -0.4 -7.5 -1 -1.9 -0.6 -5.5 -1.3 -8 -1.6 -2.5 -0.3 -4.8 -1 -5.2 -1.7 -0.4 -0.6 -0.8 -0.7 -0.8 -0.2 0 1.1 -4 -3.9 -4 -5.1 0 -0.4 -1.6 -2.5 -3.6 -4.5 -2.4 -2.6 -4.4 -3.8 -6.2 -3.8 -3.5 0 -15.1 -5.1 -15.2 -6.7 0 -1.8 6.5 -1.7 8.2 0.1 1.3 1.2 3 1.7 12 3.2 2.5 0.4 5.2 2.1 8.4 5.1 4.3 4.2 5.2 4.6 11.8 5.4 3.9 0.5 8.2 1.3 9.6 1.9 6.2 2.4 11.3 2.9 14.9 1.4 2 -0.8 7.7 -2.4 12.6 -3.4 5 -1 11.5 -2.8 14.5 -3.9 6.5 -2.4 11.1 -2.6 14.8 -0.7 1.6 0.8 7.5 1.7 13.2 2.1 10.2 0.7 10.6 0.6 14.3 -1.9 2.3 -1.6 5.2 -2.6 7.2 -2.6 4.8 0 5.9 2.5 5.1 11.4 -1.2 13 -4.3 21.7 -10.4 29.5 -3.6 4.5 -4 5.7 -4.7 12.8 -0.4 4.3 -1.3 8.9 -2 10.3 -2.1 4.1 -16.4 17.2 -24.5 22.4 -2.5 1.6 -5.7 3.7 -7.2 4.8 -1.5 1 -3.1 1.8 -3.7 1.8 -0.5 0 -1.1 0.3 -1.3 0.8 -0.5 1.1 -11.1 6.2 -13 6.2 -0.9 0 -2.1 0.7 -2.6 1.6 -1.3 2.3 -21 6.5 -31.4 6.8 -2.7 0 -4.8 0.4 -4.8 0.8 0 0.5 -1.6 0.8 -3.5 0.8 -2 0 -3.5 -0.5 -3.5 -1.1z m-89.1 -136.3 c1 -0.9 1.8 -2.2 1.9 -2.9 0.6 -6.9 0.4 -7.7 -3.2 -11.8 -2 -2.3 -3.6 -5 -3.6 -5.9 0 -3.3 3.4 -11.6 6.9 -16.9 2 -2.9 4.3 -6.4 5.1 -7.6 1.5 -2.3 1.6 -10.5 0.1 -10.5 -0.4 0 -0.8 -1.6 -0.9 -3.6 -0.2 -2 0.1 -3.3 0.5 -3.1 0.4 0.3 1.4 -0.1 2.1 -0.9 0.7 -0.8 1 -1.4 0.6 -1.4 -0.3 0 -0.1 -0.7 0.6 -1.5 0.6 -0.8 0.8 -2 0.4 -2.6 -0.5 -0.8 -0.3 -0.9 0.6 -0.4 1 0.6 1.2 0.4 0.7 -0.7 -0.3 -0.9 0 -2.1 0.6 -2.7 1.6 -1.6 -2.9 -1.5 -4.9 0.2 -5.1 4.1 -23.9 24.1 -25.8 27.5 -0.5 0.9 -1.7 2.5 -2.6 3.5 -4 4.2 -12.9 22.5 -14.5 29.5 -1.8 7.9 -1.1 10.8 2 8.2 0.8 -0.7 1.3 -1.5 1 -1.8 -0.3 -0.3 0.1 -1.2 0.7 -2 0.7 -0.8 1.3 -2 1.4 -2.7 0.4 -2.9 3.7 -6.3 6.4 -6.7 1.6 -0.2 2.7 -0.1 2.4 0.4 -0.3 0.4 -0.1 0.8 0.5 0.8 1.5 0 4.3 5.8 3.5 7.2 -0.4 0.7 -0.3 0.8 0.4 0.4 0.7 -0.4 1.3 -0.2 1.3 0.3 0.3 2.1 0.5 2.6 1.9 4.8 0.7 1.1 1.9 1.9 2.7 1.6 0.7 -0.3 1.6 0.2 1.9 1.1 0.3 0.9 1 1.3 1.5 1 0.5 -0.3 0.9 -0.1 0.9 0.5 0 1.4 4.8 0.6 6.9 -1.3z"/>
  <path d="M165 334.1 c-2.7 -0.7 -3.8 -3.7 -2.1 -5.4 0.8 -0.8 1.1 -0.7 1.1 0.5 0 0.9 1.2 2.6 2.8 3.7 2.8 2.1 2.4 2.4 -1.8 1.2z"/>
  <path d="M404.2 231.3 c-1.8 -4.6 -4.2 -17.9 -4.2 -23.3 0 -7 2.3 -6.7 4.3 0.8 1.4 5 4.7 22 4.7 24.3 0 2.2 -3.8 0.7 -4.8 -1.8z"/>
  <path d="M175 227 c0 -7.1 2.4 -12.8 5.7 -13.6 1.3 -0.4 3.9 -0.3 5.9 0.1 l3.7 0.6 -0.6 6.2 c-0.7 7.5 -1.5 9.7 -3.3 9.7 -0.8 0 -1.4 0.7 -1.4 1.5 0 1.1 -1.2 1.5 -5 1.5 l-5 0 0 -6z"/>
  <path d="M363 224.1 c0 -3 -6.9 -18 -11.5 -25.2 -10.4 -16.2 -12 -17.9 -23 -24.4 -1 -0.6 -1.9 -2.8 -2.2 -5.7 -0.8 -7.3 0.1 -9.3 5.2 -11.4 2.5 -1.1 4.5 -2.5 4.5 -3.3 0 -0.7 -3.9 -5.2 -8.7 -10 -7.2 -7 -11 -9.8 -20.6 -15 -6.5 -3.5 -12.2 -7.2 -12.7 -8.2 -1.3 -2.4 -1.2 -10 0.2 -17.3 0.7 -3.4 1.3 -6.2 1.3 -6.4 0.1 -0.1 2.5 0.5 5.3 1.4 5 1.6 6.5 3.5 4 5 -0.7 0.5 -0.8 0.3 -0.3 -0.7 0.8 -1.2 0.6 -1.2 -0.8 0 -0.9 0.7 -2.3 2.6 -3.1 4.3 -1.4 2.8 -1.4 3.2 1.1 6.9 1.6 2.4 4.8 5.1 8.4 7.1 3.3 1.8 5.9 3.6 5.9 4.1 0 0.4 0.4 0.6 0.9 0.3 1.7 -1.1 23 19.5 27.9 26.9 1.5 2.2 2.9 4.2 3.2 4.5 0.3 0.3 1.2 1.9 2.1 3.6 1.5 2.9 1.5 3.2 -0.3 5.7 -1.1 1.5 -2.4 2.5 -2.8 2.2 -0.5 -0.3 -1.2 0 -1.6 0.6 -0.4 0.8 -0.3 0.9 0.4 0.5 0.7 -0.4 1.2 -0.3 1.2 0.2 0 0.6 -0.7 1.3 -1.6 1.6 -0.8 0.3 -1.2 1 -0.9 1.6 0.4 0.6 1.1 0.8 1.6 0.5 0.5 -0.4 0.9 -0.2 0.9 0.4 0 0.5 -0.5 1.3 -1.2 1.7 -0.7 0.5 -0.5 1.1 0.7 2.1 1.1 0.7 1.5 1.3 0.9 1.3 -0.5 0 -0.4 0.4 0.2 0.8 0.6 0.4 2.3 3.2 3.8 6.3 1.4 3.1 3.7 6.8 5 8.2 1.4 1.5 2.8 3.6 3.2 4.9 0.3 1.2 1.3 2.8 2 3.6 0.8 0.7 1.4 2 1.4 2.8 0 0.8 0.5 1.4 1.2 1.4 0.6 0 0.8 0.3 0.5 0.7 -0.4 0.3 0.1 1.2 1.1 2 1 0.9 1.1 1.2 0.2 0.7 -0.8 -0.4 -1.1 -0.3 -0.7 0.1 1 1.2 3.7 1.5 3.7 0.5 0 -0.4 1.6 -2.4 3.5 -4.3 2.4 -2.4 3.5 -4.4 3.5 -6.4 0 -3.4 -2.9 -12.3 -5.6 -17.4 -1 -1.9 -1.7 -3.7 -1.6 -4.1 0.1 -0.5 -0.3 -0.8 -0.9 -0.8 -0.5 0 -0.7 -0.4 -0.4 -1 0.3 -0.5 0.1 -1 -0.6 -1 -0.7 0 -1 -0.3 -0.6 -0.6 0.3 -0.4 0 -1.3 -0.8 -2.1 -1.1 -1 -1.5 -3.7 -1.5 -8.7 0 -4 -0.3 -7.6 -0.7 -8 -0.5 -0.4 -0.8 -1.1 -0.8 -1.4 0 -1 -5.4 -10.1 -7.2 -12.1 -4.7 -5.3 -7.3 -8.7 -7.3 -9.8 0 -0.6 -0.3 -1.3 -0.7 -1.5 -0.5 -0.1 -3.3 -3.5 -6.4 -7.3 -3.1 -3.9 -7.3 -8.2 -9.3 -9.5 -4.8 -3.3 -4.6 -4.7 0.4 -1.9 19.8 11.1 45.1 40.2 54.6 62.8 2.3 5.4 1.8 14 -0.9 18.1 -1.3 1.9 -3.2 5.8 -4.1 8.7 -1 2.9 -3.1 6.7 -4.7 8.4 -1.6 1.7 -3.2 4.3 -3.5 5.8 -1.5 6.9 -2.4 8.1 -6.5 8.1 -2.2 0 -3.9 -0.4 -3.9 -0.9z"/>
  <path d="M207.2 96.3 c0.2 -1 1.6 -2 3.6 -2.4 2.9 -0.6 3.2 -0.4 3.2 1.7 0 2.1 -0.5 2.4 -3.6 2.4 -2.8 0 -3.5 -0.4 -3.2 -1.7z"/>
 </g>
 <g fill="#353431">
  <path d="M288 405.9 c-1.9 -1 -5.4 -2.4 -7.7 -3 -2.7 -0.7 -4.3 -1.7 -4.3 -2.7 0 -1.3 1.5 -1.4 10.7 -0.8 5.9 0.3 11.2 1.1 11.7 1.6 0.6 0.6 2.3 1 3.8 1 4.5 0 3.3 2.6 -1.9 4.4 -5.8 2 -7.8 1.9 -12.3 -0.5z"/>
  <path d="M197 402.9 c-2.5 -0.4 -6.4 -0.8 -8.8 -0.8 -4.4 -0.1 -13 -3.9 -24.4 -10.8 -6.7 -4 -7.5 -6.3 -2.3 -6.3 1.9 0 3.5 0.5 3.5 1 0 0.6 0.8 1 1.8 1 0.9 0 4.9 1.4 8.7 3.1 6.9 3 11.1 4 23 5.8 3.3 0.5 6.8 1.2 7.8 1.6 1.2 0.5 1.7 0.2 1.7 -0.9 0 -0.9 0.7 -1.6 1.6 -1.6 2 0 3.9 -1.9 4.6 -4.7 0.4 -1.6 0.2 -2.3 -0.8 -2.3 -0.8 0 -1.4 -1 -1.4 -2.1 0 -2.7 -5.8 -7.9 -8.7 -7.9 -1.4 0 -2.3 -0.6 -2.3 -1.5 0 -1.7 -7.3 -5.5 -10.6 -5.5 -1.2 0 -2.4 -0.3 -2.6 -0.7 -0.5 -1.3 -7.7 -4.3 -10.1 -4.3 -3.7 0 -6.7 -1.2 -6.7 -2.5 0 -1.4 -3 -2.5 -6.8 -2.5 -3.3 0 -15.2 -4 -15.2 -5.1 0 -0.5 -0.7 -0.9 -1.5 -0.9 -0.9 0 -3.6 -2.1 -6 -4.6 -3.5 -3.6 -4.5 -5.3 -4.5 -8 0 -4.3 0.8 -4.2 4 0.1 2.5 3.5 10.5 9.2 12.1 8.7 0.5 -0.1 0.9 0.3 0.9 0.9 0 0.5 0.5 0.7 1 0.4 0.6 -0.3 1 -0.2 1 0.2 0 1.4 9.1 4.3 13.3 4.3 2 0 3.7 0.4 3.7 0.9 0 0.5 1.9 1.2 4.3 1.6 2.3 0.3 7.4 2.2 11.2 4 7.5 3.7 22.4 7.9 31.6 8.9 7 0.9 31.4 0.9 36 0.2 1.9 -0.4 5 -0.8 6.9 -1 4.6 -0.6 8 -1.6 10.5 -3.2 1.1 -0.7 4.7 -2 8 -3 6 -1.7 13.7 -5.3 14.3 -6.6 0.2 -0.5 0.8 -0.8 1.3 -0.8 0.6 0 2.2 -0.8 3.7 -1.8 1.5 -1.1 4.7 -3.2 7.2 -4.8 8.1 -5.3 22.4 -18.3 24.5 -22.5 0.8 -1.4 1.6 -5.7 1.8 -9.6 0.5 -7.8 0.6 -8 5.4 -14 3.8 -4.8 6.5 -10.7 8.1 -17.8 2.1 -9.7 2.3 -12.9 0.9 -14.8 -1.3 -1.8 -1.5 -1.8 -5.3 0.8 -3.9 2.7 -3.9 2.7 -17.2 2.1 -8.6 -0.4 -14.3 -1.1 -16.1 -2.1 -3 -1.5 -7.6 -0.8 -13.1 2 -1.4 0.7 -4.1 1.6 -6 1.9 -8.7 1.4 -13.8 2.6 -17.5 4.1 -4.5 1.9 -11.4 1.5 -18.9 -1 -2.5 -0.9 -7.6 -1.9 -11.4 -2.4 -6.4 -0.8 -7.3 -1.3 -11.7 -5.5 -2.7 -2.5 -5.8 -4.6 -6.9 -4.6 -2.9 -0.1 -10.6 -2.3 -13.5 -3.9 -1.5 -0.9 -3.8 -1.1 -6.8 -0.6 -5.5 0.8 -7.9 -0.9 -8.8 -6.4 -0.3 -2.1 -1.7 -6 -3.1 -8.6 -1.3 -2.7 -2.4 -5.6 -2.4 -6.5 0 -4 -6.7 -5.8 -7.7 -2 -0.3 1.1 -0.9 1.8 -1.3 1.5 -0.4 -0.3 -1.1 0.2 -1.4 1.1 -0.3 0.8 -1.1 1.4 -1.8 1.3 -0.7 -0.1 -2.1 0.1 -3.1 0.6 -3.2 1.4 -10.4 -0.4 -12.2 -3.1 -0.8 -1.3 -1.5 -3 -1.3 -3.7 0.5 -2.9 -1.4 -8.6 -3.8 -10.8 -3.4 -3.1 -6.4 -9.1 -6.4 -12.6 0 -3.1 3.1 -7 10.2 -12.6 5.2 -4.1 6 -6.6 4 -11.7 -2.2 -5.4 -1.8 -15.1 0.9 -20.2 4.2 -8 4.1 -7.7 1.1 -7.2 -5.6 1 -11.6 4.9 -20.1 13 -7.7 7.3 -17.2 18.6 -21.2 25.2 -2 3.2 -2.9 2.7 -2.9 -1.6 0 -4.1 1.4 -6.2 4.2 -6.2 1.2 0 1.8 -0.7 1.8 -2.1 0 -3.4 1.5 -5.8 9.5 -14.7 10.6 -11.7 16.4 -17.1 18.9 -17.8 1.4 -0.3 2.6 -0.9 2.6 -1.3 0 -0.8 8.2 -3.1 11.1 -3.1 3.5 0 4.9 2.4 4.9 8.4 0 3.1 -0.4 5.6 -1 5.6 -0.5 0 -1 1.3 -1 2.9 0 1.6 -0.7 3.6 -1.5 4.5 -0.8 0.8 -1.5 2.1 -1.5 2.9 0 0.8 -0.6 2.7 -1.4 4.1 -1 1.9 -1.1 3.8 -0.5 6.4 1.2 5.4 1.1 10.9 -0.3 12.4 -0.7 0.8 -1.9 2.4 -2.5 3.6 -3.2 5.6 -3.9 6.7 -5.6 8.5 -1.2 1.2 -1.7 2.7 -1.3 4 0.3 1.2 0.6 3.4 0.6 5 0 1.5 0.6 2.7 1.3 2.7 1.4 0.1 4.1 3.6 5.1 6.8 0.4 1.2 1.3 2.2 1.9 2.2 1.6 0 3.7 -4.7 3.7 -8.1 0 -2.7 1.5 -3.9 4.9 -3.9 1.3 0 1.6 0.8 1.2 4.2 -0.3 3.7 -0.2 4.1 1.2 3 1.2 -1 1.6 -1 2 0 0.4 0.8 0.6 0.7 0.6 -0.4 0.1 -1 0.7 -1.8 1.5 -1.8 1.5 0 1.9 -1 3.1 -6.7 0.5 -2.3 1.2 -3.3 2.5 -3.3 1.6 0 2 1.1 2.6 6.1 0.4 3.3 1.2 6.6 1.8 7.2 0.6 0.7 1.6 2.3 2.2 3.7 0.8 1.8 2.5 2.9 5.9 3.8 2.8 0.7 5.6 2.3 6.7 3.7 1.1 1.4 2.8 2.5 3.9 2.5 1 0 1.9 0.5 1.9 1 0 0.6 0.7 1 1.5 1 0.8 0 1.5 0.5 1.5 1 0 0.6 0.6 1 1.4 1 0.8 0 1.6 0.3 1.8 0.8 0.8 1.7 8.7 7 13.1 8.6 2.6 1 4.7 2.2 4.7 2.7 0 0.5 0.5 0.9 1.2 0.9 0.6 0 2.2 0.9 3.4 2.1 2.6 2.4 14.7 4.8 24.4 4.8 8.2 0 17.6 -2 23.2 -4.9 6 -3.2 17.6 -4 20.6 -1.4 1.2 1 2.2 2.3 2.2 3 0 0.6 0.8 1.8 1.8 2.6 1.4 1.3 4.3 1.4 19.7 0.7 13.8 -0.7 18.1 -0.6 18.8 0.4 0.4 0.6 0.6 6.6 0.4 13.2 -0.5 11.5 -1.1 14.3 -5.2 24 -0.7 1.7 -1.9 4.7 -2.6 6.8 -0.8 2.2 -2.2 4.3 -3.2 4.8 -1.4 0.8 -1.6 1.7 -1.1 4.5 0.7 3.7 -1.2 12.4 -2.7 12.4 -0.5 0 -0.9 0.4 -0.9 0.9 0 1.4 -6.6 8.8 -15.5 17.3 -8.5 8.1 -10.3 9.9 -12.2 12 -5 5.5 -18.9 11.8 -26 11.8 -1.7 0 -3.4 0.4 -3.7 0.9 -0.4 0.5 -4.5 1.2 -9.4 1.6 -4.8 0.4 -10 1.3 -11.7 2 -4.3 1.9 -12.8 3.5 -18.5 3.5 -2.8 0 -5 0.4 -5 0.9 0 0.5 -1.2 1.2 -2.6 1.5 -1.5 0.4 -3.2 1.3 -4 2 -1.1 1.2 -0.6 1.5 3.1 2.1 2.8 0.4 4.5 1.1 4.5 2 0 0.8 0.7 1.1 2.1 0.8 1.2 -0.3 5.2 0 9.1 0.7 5.7 1.1 7.1 1.1 7.8 0 0.6 -0.9 2.3 -1.1 6.6 -0.5 5.9 0.7 7.4 1.6 7.4 4.5 0 1.3 -2.5 1.5 -16.7 1.5 -15.7 0 -19 0.2 -20.3 1.5 -2.4 2.4 -5.9 2.9 -18.2 2.7 -7.3 0 -15.3 -0.4 -17.8 -0.8z"/>
  <path d="M152 383.3 c-9.5 -7.2 -19.4 -16.1 -24 -21.4 l-5.1 -5.9 3.4 0 c3.6 0 4.9 1 22.1 17.3 2.2 2 4.4 3.7 4.8 3.7 0.4 0 0.8 0.6 0.8 1.4 0 0.8 0.5 1.6 1.1 1.8 0.6 0.2 0.9 1.6 0.7 3.1 l-0.3 2.7 -3.5 -2.7z"/>
  <path d="M364 362.3 c0 -4.4 0.9 -6.3 3.1 -6.3 1.1 0 1.9 -0.7 1.9 -1.6 0 -1.5 8.6 -13.6 10.2 -14.2 0.4 -0.2 0.8 -0.9 0.8 -1.6 0 -0.7 0.8 -2.1 1.9 -3.2 1 -1.1 2.2 -3 2.5 -4.2 0.5 -1.5 1.5 -2.2 3.2 -2.2 1.3 0 2.4 0.4 2.4 0.8 0 2.7 -13.7 22.2 -21.8 31.2 l-4.1 4.5 -0.1 -3.2z"/>
  <path d="M123 317.1 c-0.5 -1.1 -1 -3.3 -1 -5 0 -1.6 -0.4 -3.3 -1 -3.6 -0.5 -0.3 -1 -2.2 -1 -4.1 0 -2.8 0.4 -3.5 1.8 -3.2 1.7 0.3 4.3 6.7 5.7 14.1 0.6 3.3 0.5 3.7 -1.4 3.7 -1.1 0 -2.5 -0.9 -3.1 -1.9z"/>
  <path d="M398 304.7 c0 -1.3 0.9 -5.8 1.9 -10 1.1 -4.1 2.7 -15.3 3.6 -24.9 1.4 -14.6 1.5 -18.7 0.4 -26.1 -0.6 -4.8 -1.6 -9 -2 -9.3 -0.5 -0.3 -0.9 -1.6 -0.9 -2.9 0 -2.8 -2.8 -6.5 -4.8 -6.5 -1 0 -1.3 -1.1 -1 -4 0.3 -3.3 0 -4 -1.4 -4 -1 0 -1.8 -0.7 -1.8 -1.5 0 -2 -2 -5.5 -4.5 -7.8 -1.9 -1.8 -2 -1.8 -4.8 1.5 -1.5 1.8 -3.6 4.2 -4.6 5.3 -1 1.1 -2.7 4.3 -3.7 7 -2.1 5.9 -2.8 6.5 -7.6 6.5 -3.8 0 -6.8 -2 -6.8 -4.6 0 -0.9 -1.1 -4 -2.5 -6.9 -1.3 -3 -2.7 -6.6 -3.1 -8 -0.3 -1.4 -1.5 -4.2 -2.5 -6.2 -1 -2.1 -1.9 -4.3 -1.9 -5 0 -0.7 -0.4 -1.3 -1 -1.3 -0.5 0 -1 -1.6 -1 -3.5 0 -1.9 0.4 -3.5 0.8 -3.5 2.7 0 17.2 26.9 17.2 32 0 0.5 0.4 1 0.9 1 0.9 0 2.6 -3.8 3.5 -8.1 0.3 -1.5 1.9 -4.1 3.5 -5.8 1.6 -1.7 3.7 -5.5 4.7 -8.4 0.9 -2.9 2.8 -6.8 4.1 -8.7 3.9 -5.8 3.2 -8.7 -5.2 -24 -5.1 -9.2 -7.7 -12.5 -23 -30 -5.5 -6.3 -11.6 -13.5 -13.5 -16 l-3.5 -4.5 4.4 3.2 c20 14.6 37 34 48.9 55.8 6.6 11.9 12.3 26.6 12.5 32 0.1 2.4 0.5 4.1 0.8 3.9 0.3 -0.2 0.4 0.7 0.2 2 -0.3 1.2 0.1 4.2 0.8 6.7 0.7 2.4 1.4 5.1 1.4 5.9 0.1 0.9 0.8 2.7 1.6 4 1.9 3.4 1.9 36.5 0.1 47 -2.3 13 -7.3 30 -8.8 30 -0.8 0 -1.4 -1 -1.4 -2.3z"/>
  <path d="M111.2 223.6 c0.3 -2.5 1.4 -6.5 2.4 -9 1.5 -3.5 2.4 -4.6 4.2 -4.6 2.7 0 2.7 -0.2 -0.2 6.4 -1.3 2.9 -2.7 6.8 -3.1 8.5 -0.4 1.8 -1.3 3.1 -2.2 3.1 -1.3 0 -1.5 -0.9 -1.1 -4.4z"/>
  <path d="M326 173.6 c0 -0.8 -0.6 -1.6 -1.2 -1.8 -1.7 -0.6 -1.8 -12.6 -0.2 -13.6 0.7 -0.4 1.7 -2.5 2.3 -4.6 0.9 -3.6 0.8 -4.1 -1.3 -6 -2.6 -2.4 -5.4 -4.3 -7.6 -5.3 -0.8 -0.4 -2.1 -1.3 -2.8 -2 -0.7 -0.7 -1.9 -1.3 -2.6 -1.3 -0.7 0 -2.1 -0.9 -3.1 -2 -1 -1.1 -2.4 -2 -3.2 -2 -0.7 0 -1.3 -0.4 -1.3 -0.8 0 -1.2 -4.6 -3.2 -7.4 -3.2 -1.3 0 -2.6 -0.7 -3 -1.5 -0.3 -0.8 -1.2 -1.5 -2.1 -1.5 -0.8 0 -1.5 -0.3 -1.5 -0.7 0 -0.5 -1.7 -1.9 -3.7 -3.3 -5.3 -3.6 -7.3 -6 -7.3 -8.9 0 -4.7 1.1 -6.6 4.3 -8.1 3.8 -1.6 4.7 -2.7 4.7 -5.7 0 -1.4 -0.6 -2.3 -1.5 -2.3 -0.9 0 -1.5 -0.9 -1.5 -2.4 l0 -2.3 5.6 1.5 c7 2 7.7 3.6 5.6 11.9 -2.5 9.5 -1.8 10.5 12.3 18.3 12.9 7.2 23.7 16.2 28.7 23.9 3.1 4.9 3.7 8.8 1.3 8.8 -3.1 0 -9.6 3.7 -10.1 5.8 -0.6 2.5 1.1 7.5 2.6 7.5 0.5 0 1 0.7 1 1.5 0 1 -1.1 1.5 -3.5 1.5 -2.4 0 -3.5 -0.5 -3.5 -1.4z"/>
  <path d="M188.4 138.4 c-4.2 -1 -4.6 -9 -0.6 -14.2 1.5 -2 3 -3.8 3.5 -4 0.4 -0.2 0.7 -1 0.7 -1.7 0 -1.4 7.8 -6.9 15 -10.5 3.2 -1.6 6.9 -2.4 13 -2.7 7.7 -0.4 8.7 -0.3 10.8 1.6 2.2 2.2 3.2 9.1 1.3 9.1 -1.6 0 -2 4 -0.5 5.4 0.8 0.9 1.4 3.5 1.4 6.6 0 4.2 -0.4 5.5 -2.7 7.6 -3.5 3.3 -5.8 3.7 -15.5 3 -12.4 -1 -12.8 -1 -18.8 -0.3 -3 0.3 -6.5 0.3 -7.6 0.1z"/>
  <path d="M152.6 120.9 c1.1 -1.8 13.3 -9.4 23 -14.2 9.4 -4.7 27.2 -11.3 32.8 -12.2 1.7 -0.2 6 -1.1 9.6 -1.9 3.6 -0.7 8.4 -1.6 10.8 -1.9 3.8 -0.5 4.2 -0.3 4.2 1.7 0 2.5 1.1 2 -33.5 12.7 -7.1 2.2 -15.9 5.1 -19.5 6.5 -3.6 1.3 -7.1 2.4 -7.8 2.4 -0.6 0 -2.6 0.9 -4.4 2 -1.8 1.1 -4.5 2 -6 2 -2.1 0 -2.8 0.5 -2.8 2 0 1.6 -0.7 2 -3.6 2 -2.3 0 -3.3 -0.4 -2.8 -1.1z"/>
 </g>
 <g fill="#3a3a32">
  <path d="M289.7 404.6 c0.4 -1.3 0.3 -1.7 -0.5 -1.2 -0.6 0.3 -1.4 0.2 -1.7 -0.4 -0.5 -0.8 -1.1 -0.8 -2 0 -0.7 0.6 -1.6 0.7 -1.9 0.2 -0.3 -0.5 -1.9 -0.9 -3.5 -1 -1.7 0 -5.8 -0.8 -9.1 -1.6 -3.4 -0.9 -6.5 -1.6 -6.8 -1.6 -0.4 0 0 -0.5 0.8 -1 1.2 -0.8 0.9 -1 -1.2 -1 -1.6 0 -2.8 0.4 -2.8 1 0 0.9 -6.9 0.6 -14.5 -0.7 -2.2 -0.4 -6 -0.6 -8.5 -0.4 -2.5 0.1 -6.2 -0.5 -8.3 -1.4 -2.2 -0.9 -3.6 -1.2 -3.3 -0.6 0.4 0.5 -0.3 1.5 -1.5 2.1 -1.7 0.9 -2 0.9 -1.4 0 0.5 -0.8 0.3 -1.1 -0.6 -0.8 -0.8 0.3 -1.5 1 -1.5 1.6 -0.3 2.4 -0.4 2.6 -1.6 1.4 -0.9 -0.9 -0.8 -1.5 0.8 -2.7 1 -0.8 2.4 -1.3 2.9 -1.1 0.6 0.2 1.1 -0.5 1.1 -1.5 0 -1.1 -0.5 -1.9 -1.1 -1.9 -1.3 0 -6.1 6.1 -5.7 7.3 0.1 0.5 -0.2 0.6 -0.8 0.2 -0.5 -0.3 -1 -1.4 -1.1 -2.3 0 -1.4 -0.2 -1.3 -0.9 0.3 -1.2 2.8 -1.2 4.3 0.1 2.5 0.9 -1.3 1 -1.3 0.6 0 -0.2 0.9 -1.4 1.4 -2.8 1.4 -1.3 -0.1 -4.4 -0.3 -6.9 -0.5 -2.5 -0.1 -4.9 -0.5 -5.5 -0.8 -0.5 -0.3 -2.1 -0.7 -3.3 -0.9 -1.7 -0.2 -2.2 0.1 -1.6 1 0.5 0.8 0.1 0.8 -1.1 -0.2 -1 -0.8 -1.9 -1.4 -1.9 -1.2 -0.1 0.2 -1.4 -0.1 -2.9 -0.7 -1.6 -0.6 -3.9 -1.1 -5.3 -1.1 -1.3 0 -6.2 -1.6 -10.8 -3.5 -9.4 -3.9 -10.1 -4 -9 -2.2 0.5 0.7 -0.2 0.6 -1.6 -0.4 -3.8 -2.5 -3.6 -3.9 0.4 -3.9 2.3 0 3.9 0.5 4.2 1.5 0.4 0.8 1.5 1.5 2.5 1.5 1 0 1.9 0.5 1.9 1 0 0.6 1.7 1 3.8 1 2 0 8.4 0.9 14.2 2 11.7 2.2 16 2.5 16 1 0 -0.5 -0.4 -1 -1 -1 -0.5 0 -2.7 -1.5 -4.7 -3.4 -2.1 -1.8 -5.4 -4.1 -7.3 -5.1 -1.9 -1 -4.2 -2.3 -5 -3 -0.8 -0.6 -3.1 -1.8 -5 -2.5 -1.9 -0.8 -5.1 -2.6 -7 -4 -4.8 -3.8 -10.3 -6.4 -18.2 -8.8 -9.6 -3 -12.9 -5 -18.2 -11.1 -9.4 -10.6 -16.7 -24.4 -20.5 -38.6 -0.5 -2.2 -2 -6.9 -3.2 -10.5 -1.1 -3.6 -3.5 -12.6 -5.1 -20 -2.8 -12.5 -3.1 -15 -3.2 -34.5 -0.1 -19.1 0.1 -21.7 2.2 -28.8 4.5 -15.7 11.2 -28.6 21.7 -41.7 7.7 -9.7 18.4 -20 20.6 -20 1 0 1.9 -0.6 1.9 -1.3 0 -1.8 10.9 -8.3 17.1 -10.1 9.6 -2.9 14.1 -1.7 15.5 4 1.5 5.9 -0.2 9.4 -8.1 17 -5.8 5.5 -7.6 7.8 -7.3 9.5 0.5 3.4 2.1 3.3 6.8 -0.6 3.3 -2.8 5 -3.5 8.4 -3.5 7.9 0 11.1 4.8 10.2 15.2 -0.3 3.5 -0.7 12.8 -0.9 20.8 -0.3 13.7 -0.2 14.8 2.2 19.8 1.3 2.8 2.8 5.2 3.3 5.2 0.4 0 0.8 0.8 0.8 1.8 0 1.1 -0.8 1.7 -2.5 1.8 -1.4 0.1 -2.2 -0.2 -1.9 -0.7 0.3 -0.5 -0.1 -0.6 -0.8 -0.4 -1.4 0.6 -6.4 -4.3 -5.4 -5.2 0.3 -0.3 -0.3 -1.4 -1.4 -2.3 -1.2 -1 -1.8 -2.4 -1.4 -3.3 0.3 -0.9 0 -4.2 -0.7 -7.4 -0.6 -3.2 -1.4 -5.3 -1.6 -4.6 -0.3 0.9 -1.1 0.9 -3.1 0.2 -1.5 -0.6 -2.4 -0.7 -2 -0.3 0.4 0.3 0.1 1.3 -0.7 2 -0.8 0.8 -2.4 4.2 -3.6 7.5 -1.2 3.3 -2.6 6.2 -3.1 6.5 -0.5 0.3 -0.4 1.2 0.3 2 0.9 1.1 0.8 1.4 -0.5 1.4 -0.9 0 -1.6 0.6 -1.6 1.3 0 0.8 -0.3 0.7 -1 -0.3 -0.8 -1.2 -1 -1.2 -1.6 0.3 -0.8 2.1 -2.4 2.2 -2.4 0.2 0 -0.8 -0.6 -1.5 -1.2 -1.5 -0.7 0 -2.2 -1.2 -3.2 -2.7 -1.2 -1.6 -1.4 -2.3 -0.5 -1.8 1.4 0.8 0.1 -0.8 -5.4 -6.9 -1.5 -1.7 -3 -4 -3.2 -5.1 -0.7 -2.8 0.1 -6 1.3 -5.8 0.5 0.1 0.7 -0.7 0.4 -1.9 -0.3 -1.4 -0.1 -1.9 0.6 -1.4 0.6 0.3 1.3 -0.3 1.7 -1.4 0.4 -1.2 1.1 -1.7 1.8 -1.4 0.7 0.4 0.9 0.3 0.4 -0.1 -0.4 -0.5 0.1 -1.7 1 -2.8 1.4 -1.5 1.4 -1.9 0.3 -1.3 -0.8 0.4 -0.5 -0.1 0.7 -1 1.3 -0.9 2.3 -2.1 2.3 -2.6 0 -0.5 0.6 -1.6 1.4 -2.4 1.5 -1.4 1.3 -7.7 -0.2 -9.8 -0.5 -0.6 -0.9 -2.6 -1.1 -4.4 -0.2 -2.5 0.3 -3.8 1.8 -4.9 1.2 -0.8 2.1 -2.5 2.1 -3.9 0 -1.3 0.5 -2.4 1.1 -2.4 0.5 0 0.7 -0.5 0.4 -1 -0.3 -0.6 -0.1 -1 0.5 -1 0.6 0 0.9 -0.4 0.5 -1 -1 -1.5 0.6 -6.1 1.9 -5.3 0.7 0.4 0.6 0.1 -0.1 -0.9 -0.7 -0.8 -1.4 -2.6 -1.5 -4 -0.2 -1.9 -0.7 -2.4 -2 -2 -1 0.2 -2.1 0.8 -2.3 1.3 -0.3 0.4 -1.2 0.6 -2 0.2 -0.8 -0.3 -1.5 -0.1 -1.5 0.5 0 0.5 -1.2 1.3 -2.7 1.7 -2.7 0.6 -12.3 9.9 -12.3 11.8 0 0.6 -0.3 0.8 -0.6 0.5 -0.8 -0.9 -12.1 11.9 -14.4 16.3 -0.7 1.3 -2.3 3.5 -3.6 4.9 -1.2 1.4 -3.5 4.8 -5 7.5 -11.1 20.7 -13 28.3 -12 47.5 0.9 16.4 1.1 17.9 3.7 28.7 1.3 5.2 2.7 8.9 3.2 8.6 0.6 -0.3 0.7 -0.1 0.4 0.4 -0.4 0.6 0 2.9 0.8 5.2 0.8 2.3 1.2 4.1 0.9 4.1 -0.2 0 0.3 1.4 1.1 3.1 0.9 1.7 1.4 3.3 1.1 3.7 -0.3 0.3 0.1 1.4 1.1 2.4 0.9 1 1.3 1.8 0.9 1.8 -0.4 0 -0.2 0.9 0.4 2 0.8 1.5 0.8 2 -0.2 2 -1 0 -1 0.2 0 0.9 0.8 0.4 1.3 1 1.2 1.2 -0.1 0.2 0.3 1.7 0.9 3.2 0.6 1.6 1.1 3 1.1 3.3 0 1.6 6.9 15 10.7 20.6 4.2 6.3 8.8 11.5 6.9 7.8 -0.4 -0.8 0.1 -0.5 1.1 0.6 1 1.2 2.8 2.1 4 1.9 1.9 -0.1 2.1 0.1 1 1.3 -1 1.3 -0.9 1.4 1.3 0.2 2.3 -1.2 2.4 -1.2 1.1 0.4 -1.2 1.4 -1.2 1.6 0.3 1 0.9 -0.4 1.6 -0.1 1.6 0.6 0 0.7 0.7 1 1.5 0.7 0.8 -0.4 1.7 -0.2 2 0.4 0.4 0.5 1.1 0.7 1.6 0.4 0.5 -0.4 0.9 -0.2 0.9 0.3 0 0.5 2.4 0.8 5.3 0.6 3.1 -0.2 4.7 0 3.9 0.5 -1 0.6 -0.6 1 1.4 1.5 2.1 0.6 2.4 1 1.4 1.6 -1.7 1 5.2 2.5 7.5 1.6 0.8 -0.3 1.5 -0.1 1.5 0.5 0 0.6 0.7 0.8 1.6 0.5 0.8 -0.3 1.2 -0.2 0.9 0.4 -0.3 0.5 0.6 1.2 2 1.6 1.4 0.3 2.5 1 2.5 1.6 0 0.5 0.5 0.6 1 0.3 0.6 -0.4 2.4 0 4 0.9 1.9 0.9 2.8 1 2.3 0.3 -0.3 -0.7 0.3 -0.3 1.5 0.7 1.2 1.1 2.2 1.5 2.2 1.1 0 -0.5 0.6 0 1.4 1 0.8 1.1 1.2 2.3 1 2.6 -0.2 0.4 0.4 0.5 1.4 0.2 1 -0.2 2.6 0.5 3.6 1.6 1.1 1.2 2.5 2.1 3.3 2.1 0.7 0 1.6 0.7 1.9 1.5 0.4 0.8 1.1 1.2 1.8 0.8 0.6 -0.3 0.8 -0.3 0.4 0.2 -0.4 0.4 -0.1 1.7 0.7 2.9 1.7 2.3 2 7.2 0.5 8.1 -1.3 0.8 -1.3 2.5 -0.1 2.5 0.5 0 1.2 -0.9 1.6 -1.9 0.3 -1.1 1.2 -1.8 1.9 -1.5 1.6 0.6 2.8 -3 1.4 -4.4 -0.6 -0.6 0.1 -0.8 1.9 -0.6 2.6 0.4 2.6 0.4 0.6 -0.5 -3.4 -1.5 -2.8 -2.4 1.2 -1.7 1.9 0.4 3.5 0.3 3.4 -0.1 -0.3 -1.9 0.2 -3.3 1.1 -3.3 0.6 0 1 0.8 1.1 1.8 0 1 0.3 1.2 0.6 0.5 0.3 -0.8 2.8 -1.4 6.6 -1.5 l6.2 -0.1 -4.5 -0.7 c-3.5 -0.6 -3.1 -0.7 2.3 -0.4 4.4 0.3 6.7 0 6.7 -0.7 0 -0.6 1 -0.9 2.3 -0.8 2.9 0.3 7.7 -1.7 7.7 -3.2 0 -0.7 1 -0.9 2.8 -0.5 4.8 1.2 12.5 0.8 15.2 -0.9 0.8 -0.5 3.4 -1 5.8 -1.1 2.4 -0.1 4.7 -0.5 5.1 -1 0.3 -0.5 1.6 -0.9 2.9 -1 3.3 -0.1 3 3.8 -0.5 5.3 -12.6 5.3 -16.3 7 -18.4 8.4 l-2.3 1.6 2.4 1.3 c1.4 0.7 7.2 3 13 5.1 19.8 7 20 7.1 20 10.1 0 2 -0.5 2.8 -1.7 2.9 -5.8 0.4 -7 0.3 -8.6 -1 -1.6 -1.3 -1.9 -1.3 -2.7 -0.1 -0.8 1.3 -1 1.3 -1 0.1 0 -1.1 -0.4 -0.9 -1.5 0.5 -1.5 1.8 -1.5 1.8 -0.8 0z"/>
  <path d="M138.7 370.2 c-0.5 -0.7 -1.2 -1 -1.7 -0.7 -0.4 0.3 -1.4 -0.3 -2.1 -1.3 -1.3 -1.6 -1.2 -1.6 0.6 -0.2 1.5 1.1 1.4 0.7 -0.4 -1.3 -1.4 -1.5 -2.9 -2.7 -3.5 -2.7 -0.6 0 -0.4 0.4 0.4 1 0.8 0.5 1.2 1.1 0.9 1.5 -0.3 0.3 -1.4 -0.5 -2.5 -1.7 -1 -1.2 -1.3 -1.8 -0.6 -1.4 0.6 0.4 1.2 0.3 1.2 -0.2 0 -0.5 -1.8 -2.1 -4 -3.6 -4.8 -3.1 -5.1 -4.6 -1 -4.6 2.5 0 3 0.4 3 2.5 0 2.1 0.5 2.5 3 2.5 1.7 0 3 0.4 3 1 0 0.5 1.2 2 2.6 3.3 1.7 1.6 2.5 3.2 2.2 4.8 -0.2 1.7 -0.6 2 -1.1 1.1z"/>
  <path d="M302.3 365.6 c0.9 -0.7 1.7 -1.9 1.7 -2.5 0 -0.7 0.5 -0.9 1 -0.6 0.6 0.3 1 -0.1 1 -0.9 0 -0.8 0.4 -1.8 1 -2.1 0.6 -0.3 0.7 0.1 0.4 1.2 -0.3 1 0.3 0.3 1.3 -1.5 1.1 -1.8 2.2 -3 2.6 -2.6 0.4 0.4 0.7 0.1 0.7 -0.6 0 -0.7 0.3 -1 0.6 -0.7 0.4 0.4 1.9 -0.9 3.4 -2.8 1.5 -1.9 3 -3.2 3.3 -2.9 0.2 0.3 3.1 -2.5 6.3 -6.2 3.3 -3.7 6.7 -7.6 7.7 -8.6 0.9 -1 1.4 -1.8 1 -1.8 -0.5 0 0.1 -0.7 1.1 -1.5 1.1 -0.8 1.7 -1.5 1.4 -1.5 -0.4 0 -0.1 -1.2 0.7 -2.6 0.9 -1.8 1 -3.5 0.4 -5.7 -1 -3.4 0.6 -9.1 2.2 -8.1 1 0.6 4.1 -6.5 3.3 -7.7 -0.3 -0.5 -0.2 -0.9 0.3 -0.9 0.8 0 2.2 -2.8 4.4 -9.2 1.9 -5.7 4.3 -5 3.6 0.9 -0.3 2.6 -1 4.9 -1.6 5.1 -0.6 0.2 -1.1 1.2 -1.1 2.2 0 1 -0.8 3.8 -1.9 6.2 -1 2.4 -2.8 8 -3.9 12.4 -1.2 4.8 -3.5 10.3 -5.5 13.6 -4.1 6.3 -18.3 21.8 -20.1 21.8 -0.6 0 -1.7 0.9 -2.4 2 -0.7 1.1 -1.8 2 -2.6 2 -0.7 0 -2.2 1.1 -3.2 2.5 -1.4 1.9 -2.8 2.5 -5.4 2.5 -3.1 -0.1 -3.3 -0.2 -1.7 -1.4z"/>
  <path d="M363 363.1 c0 -2 0.7 -4 1.8 -5 1 -0.9 2.1 -2.4 2.5 -3.3 0.4 -1.2 1.7 -1.8 3.7 -1.8 l3.1 0 -2.1 3 c-1.2 1.7 -2.6 3 -3.1 3 -0.6 0 -0.8 0.3 -0.6 0.8 0.3 0.4 -0.8 2.1 -2.4 3.7 l-2.9 3 0 -3.4z"/>
  <path d="M350.4 280.7 c0.3 -4.6 0 -9 -0.5 -9.8 -0.7 -1.1 -0.9 -1.1 -0.9 0 0 1.1 -0.3 1.1 -1.5 0.1 -0.8 -0.7 -1.5 -0.9 -1.5 -0.4 0 0.5 -7.4 0.9 -16.3 0.9 -16.5 0 -19.7 -0.6 -19.7 -3.9 0 -1.3 -3.6 -4.6 -5 -4.6 -0.6 0 -1 -0.4 -1 -1 0 -0.5 1.9 -1 4.3 -1 3.6 0 4.6 0.5 7 3.5 l2.8 3.5 8.6 0 8.7 0 5.1 -5.5 c4.6 -5 5.4 -5.5 9.3 -5.5 6.1 0 6.7 2 5.1 18.8 -1.1 11.7 -1.4 13.2 -3 13.2 -1.7 0 -1.9 -0.7 -1.5 -8.3z"/>
  <path d="M403.3 246.8 c-1.4 -9.6 -3.8 -16.4 -6.2 -17.1 -1 -0.2 -2.6 -3.1 -4 -7.3 -3.1 -9.1 -6.6 -15.1 -9.7 -16.7 -2.4 -1.3 -2.4 -1.4 -0.6 -3 1.7 -1.6 2.1 -1.6 5.5 0.2 2 1 3.3 2.1 3 2.5 -0.4 0.3 -0.1 0.6 0.5 0.6 0.7 0 1.2 0.7 1.2 1.5 0 0.9 1.5 2.5 3.4 3.6 2 1.1 3.7 3.1 4.1 4.7 0.4 1.5 1.2 3 1.8 3.4 0.9 0.5 0.9 1 0 1.9 -1.5 1.5 -0.6 3.9 1.4 3.9 1.2 0 1.4 0.7 1 2.9 -0.3 1.5 -0.2 3.2 0.2 3.7 1 1.2 3.1 14 3.1 19.3 0 3.3 -0.4 4.1 -1.8 4.1 -1.4 0 -2 -1.4 -2.9 -8.2z"/>
  <path d="M362.6 232.3 c-2.9 -2.9 -6.2 -20.3 -3.9 -20.3 1.2 0 4.3 6 4.3 8.4 0 0.9 0.5 1.6 1.1 1.6 0.5 0 0.8 0.4 0.5 0.9 -0.8 1.2 2 2.2 3.9 1.5 0.8 -0.4 1.6 -1.2 1.6 -2 0.3 -3.2 1.9 -6.4 3.2 -6.4 1 0 0.3 12.2 -0.9 15.4 -0.6 1.7 -8.3 2.3 -9.8 0.9z"/>
  <path d="M348.6 198.9 c-7.2 -11.9 -10.7 -15.2 -19.1 -17.7 -5.6 -1.7 -7.4 -2.7 -8.8 -5.1 -3.1 -5.2 -1.6 -15.5 3.2 -22.1 3 -4.1 3.2 -8 0.5 -8 -0.8 0 -1.4 -1 -1.4 -2.5 0 -1.8 0.4 -2.3 1.6 -1.8 3.9 1.5 9.9 9.3 7.2 9.3 -1 0 -1 0.2 0 0.9 1.1 0.7 1.1 0.9 -0.2 1.4 -2.2 0.9 -2 2.8 0.2 2.1 1.2 -0.4 1 0 -0.5 1.2 -1.3 0.9 -2.3 2.2 -2.3 2.9 0 0.8 -0.4 1.5 -0.9 1.7 -0.4 0.2 -1.2 1.3 -1.5 2.6 -0.6 1.6 -0.3 2.2 0.8 2.2 1.5 0 2.1 1.8 1.6 5 -0.1 0.8 0.1 1.2 0.6 0.8 0.4 -0.4 2.9 0.5 5.7 1.9 5.6 3.1 13.2 11.2 14.9 16.1 0.7 1.7 1.5 3.2 1.9 3.2 0.4 0 1 1.4 1.4 3 0.4 1.7 1.1 3 1.7 3 0.6 0 0.8 0.3 0.5 0.7 -0.4 0.3 -0.3 1.1 0.2 1.7 0.4 0.6 1.1 2.1 1.4 3.4 0.4 1.8 0.1 2.2 -1.6 2.2 -1.7 0 -3.4 -2.1 -7.1 -8.1z"/>
  <path d="M385.3 168.3 c-0.4 -1 -1.1 -2.1 -1.7 -2.5 -0.8 -0.5 -0.8 -0.8 0 -0.8 0.7 0 1.9 1.1 2.8 2.5 0.9 1.4 1.2 2.5 0.6 2.5 -0.6 0 -1.4 -0.8 -1.7 -1.7z"/>
  <path d="M364.5 145.1 c-1.6 -1.5 -3.6 -3.8 -4.3 -5 -1.2 -2.1 -1.1 -2.2 1.4 -1.9 3.2 0.4 6.7 4.7 6.2 7.6 -0.3 2 -0.4 2 -3.3 -0.7z"/>
  <path d="M303.3 134.4 c-2.9 -1.4 -5.3 -3 -5.3 -3.5 0 -0.5 -1.1 -0.9 -2.4 -0.9 -1.3 0 -4 -1.3 -6.1 -3 -2.1 -1.6 -4.1 -3 -4.6 -3 -0.5 0 -2.4 -1.4 -4.4 -3.1 -3 -2.7 -3.5 -3.7 -3.5 -7.4 0 -4.7 0.9 -5.5 6.6 -5.5 2.4 0 3.4 -0.5 3.4 -1.5 0 -1 1 -1.5 3 -1.5 2.8 0 2.9 0.2 1.8 2 -0.7 1.1 -1.8 2 -2.4 2 -0.6 0 -1.7 0.7 -2.4 1.5 -0.7 0.8 -1.6 1.3 -2 1 -0.4 -0.3 -1 0.4 -1.3 1.5 -0.3 1.2 0.1 2.4 1.1 3 1 0.5 1.3 1 0.8 1 -0.5 0 1.1 1.4 3.5 3.2 2.4 1.7 4.6 3.4 4.9 3.8 0.3 0.4 1.5 1 2.8 1.4 1.2 0.4 2 1.2 1.7 1.7 -0.4 0.5 0.5 0.9 1.9 0.9 3 0 7.6 2 7.6 3.2 0 0.5 0.4 0.7 0.8 0.4 0.5 -0.3 2.2 0.8 3.7 2.4 l2.9 3 -3.5 0 c-1.9 -0.1 -5.8 -1.2 -8.6 -2.6z"/>
  <path d="M355.9 135.7 c-2.2 -1.7 -3.2 -4.7 -1.5 -4.7 1.8 0 3.8 2.6 3.4 4.4 -0.2 1.2 -0.6 1.2 -1.9 0.3z"/>
  <path d="M227.3 132.9 c0.9 -0.6 1.5 -1.4 1.2 -2 -0.4 -0.5 -0.2 -0.9 0.4 -0.9 1.4 0 0.9 -4.2 -0.6 -5.8 -1.5 -1.6 -1.6 -12.4 -0.1 -13.3 0.6 -0.4 -0.4 -1.3 -2.1 -2 -4.9 -2.2 -4 -4.3 1.4 -3.7 7.1 0.9 7.5 1.5 7.5 13.8 0 12.1 -1.3 15 -6.6 15 -2.5 -0.1 -2.6 -0.2 -1.1 -1.1z"/>
  <path d="M180.5 107 c2.8 -1.2 4.5 -1.2 4.5 0 0 0.6 -1.5 1 -3.2 0.9 -2.8 0 -3 -0.2 -1.3 -0.9z"/>
  <path d="M285.8 99.2 c-2.8 -1.7 -3.9 -5.2 -1.6 -5.2 0.6 0 2.7 0.5 4.5 1.2 2.4 0.9 3.3 1.8 3.3 3.5 0 2.7 -2.2 2.9 -6.2 0.5z"/>
  <path d="M224 95.2 c0 -1.3 3.5 -3.9 4.7 -3.5 0.6 0.2 1.4 -0.1 1.8 -0.6 0.3 -0.6 2.2 -1.1 4.1 -1.1 2.6 0 3.4 0.4 3.4 1.8 0 1.3 -1.3 2.1 -4.5 3 -5.2 1.4 -9.5 1.6 -9.5 0.4z"/>
 </g>
 <g fill="#44433b">
  <path d="M303 403.7 c0 -1.3 -3 -2.6 -20 -8.7 -14.2 -5.1 -13.7 -4.8 -15.6 -7.8 -1.7 -2.5 -1.6 -2.6 1.4 -5.1 1.7 -1.4 5.9 -3.7 9.4 -5.1 10.4 -4 25.3 -12.2 31 -16.9 8.6 -7.3 21.5 -20.6 25.2 -26.3 2.3 -3.4 4.4 -8.4 5.7 -13.7 1.1 -4.5 3.4 -11.4 5 -15.3 4 -9.8 4.7 -12.7 6.3 -27.3 1.4 -12.9 1 -17.5 -1.6 -17.5 -0.7 0 -3.5 2.5 -6.3 5.5 l-5.1 5.5 -8.5 0 c-4.6 0 -9.4 0.3 -10.7 0.6 -1.8 0.5 -3.1 -0.3 -6.4 -3.6 -3.4 -3.7 -4.7 -4.4 -8.2 -4.5 -2.2 -0.1 -5.3 0.2 -6.8 0.6 -2.5 0.7 -2.8 0.5 -2.8 -1.5 0 -3.8 7.8 -6.2 16.5 -5.1 5.3 0.6 5.5 0.7 6.5 4.5 0.6 2.2 1.4 4.2 1.9 4.5 0.5 0.2 3.6 0.2 7 -0.1 5.3 -0.6 6.5 -1.2 9.4 -4.2 1.7 -1.9 5.5 -5.8 8.3 -8.6 2.8 -2.8 5.9 -6.5 6.8 -8.3 2.1 -4.1 5.3 -6.3 9.3 -6.3 3.8 0 4.2 0.5 5 6.9 0.8 7.2 -0.2 10 -4.2 11.7 -3.9 1.6 -3.6 0.5 -6.1 21.9 -1 8.7 -2.9 18.2 -4.9 25 -1.8 6.1 -3.8 13.5 -4.4 16.6 -1.4 8.1 -7.4 19.5 -13.9 26.9 -6.9 7.8 -21.8 20.2 -27.5 23.1 -6.5 3.3 -17.7 11 -17.7 12.3 0 1.5 2.6 3.1 14.5 9.1 7.7 3.9 10.1 5.6 10.3 7.3 0.3 1.8 -0.4 2.6 -3.2 3.7 -4.3 1.8 -5.6 1.9 -5.6 0.2z"/>
  <path d="M201 399.4 c-17.1 -2.9 -22.6 -4.1 -28.8 -6.6 -4.1 -1.5 -8.1 -2.7 -9 -2.6 -1 0.2 -1.6 -0.3 -1.4 -1 0.1 -0.8 -0.2 -1.1 -0.8 -0.7 -1.4 0.9 -9.9 -5.5 -10 -7.4 0 -0.8 -0.2 -1.2 -0.5 -0.9 -0.3 0.3 -4.2 -3.1 -8.8 -7.4 -4.5 -4.4 -10.4 -9.7 -13.1 -11.9 -2.7 -2.2 -5.7 -5.1 -6.8 -6.4 l-1.9 -2.5 3.4 0 c2.7 0 4.2 0.8 6.6 3.5 1.7 1.9 3.4 3.5 4 3.5 1.2 0 18.5 16.1 18.9 17.7 0.2 0.7 0.8 1.3 1.3 1.3 0.6 0 3 1.4 5.4 3 2.4 1.7 4.6 3 5 3 0.3 0 3.2 1.3 6.4 2.9 5.1 2.5 13.9 5.1 17.3 5.1 0.6 0 -2.2 -2.5 -6.2 -5.5 -4 -3 -7.7 -5.5 -8.1 -5.5 -0.4 0 -2.6 -1.6 -4.9 -3.5 -3.8 -3.1 -12 -7.5 -14.1 -7.5 -2.6 0 -12.6 -7.9 -17.6 -14 -12.2 -14.6 -17.5 -23.7 -19.8 -34 -1 -4.1 -2.2 -9.1 -2.7 -11 -6.3 -23.2 -8.2 -37 -8.2 -59.5 0 -19.1 0.2 -20.4 2.8 -28.5 1.6 -4.7 3.9 -11.2 5.3 -14.5 3.1 -7.3 10.2 -19.5 11.4 -19.5 0.5 0 0.9 -0.5 0.9 -1.2 0 -2.1 5.1 -7.8 7.1 -7.8 1.3 0 1.9 -0.7 1.9 -2.4 0 -1.5 1.3 -3.6 3.5 -5.5 1.9 -1.7 3.5 -3.5 3.5 -4 0 -0.5 1 -1.5 2.3 -2.4 1.2 -0.8 3.3 -2.5 4.7 -3.9 5.3 -5.2 13.2 -10.7 20.4 -14.3 6.9 -3.4 8.2 -3.7 13.8 -3.3 4.9 0.4 6.5 0.9 7.7 2.7 5.2 7.3 5.5 7.5 11.5 7.2 l5.6 -0.2 0 5.6 c0 5.1 -0.3 5.9 -3.4 8.8 -5.4 5.1 -5.9 6.7 -4.5 15 1 6.4 0.9 7.8 -0.8 13.2 -1.7 5.1 -1.9 8 -1.5 19.5 l0.4 13.4 6.9 6.8 c6.1 6.1 6.9 7.3 6.9 10.6 -0.1 3.1 -0.3 3.4 -1.3 2.2 -0.7 -0.8 -1.8 -1.6 -2.6 -1.8 -2.3 -0.5 -6.1 -3.9 -5.3 -4.7 0.4 -0.5 0.3 -0.6 -0.3 -0.3 -1.9 1 -6.9 -2.9 -9.3 -7.3 -2.2 -4.1 -2.3 -5.1 -1.7 -14.1 0.4 -6.3 0.2 -11.6 -0.5 -15 -1 -4.5 -1 -5.9 0.4 -9.2 0.9 -2.1 1.6 -4.9 1.6 -6.3 0 -4.7 -4.3 -10.3 -7.8 -10.3 -0.6 0 -3.2 1.8 -5.8 4 -7.9 6.5 -12.4 5.2 -12.4 -3.4 0 -4.8 0.2 -5.1 7.3 -12 8.2 -7.9 9.1 -9.5 7.5 -13.1 -1.5 -3.3 -2.9 -3.6 -9 -1.9 -18.5 5.5 -45.8 34.2 -56.2 59.1 -6.1 14.7 -7.1 20.3 -7 39.8 0.2 16.1 0.5 19.5 3.2 31.5 1.6 7.4 4 16.4 5.1 20 1.2 3.6 2.7 8.3 3.2 10.5 3.8 14.2 11.1 28 20.5 38.6 5.3 6.1 8.6 8.1 18.2 11.1 7.9 2.4 13.4 5 18.2 8.8 1.9 1.4 5.1 3.2 7 4 1.9 0.7 4.2 1.9 5 2.5 0.8 0.7 3.1 2 5 3 1.9 1 5.2 3.3 7.3 5.1 2 1.9 4.2 3.4 4.8 3.4 0.6 0 0.9 1.7 0.7 4.3 -0.3 3.7 -0.6 4.2 -2.8 4.3 -1.4 0.1 -3.6 0 -5 -0.2z"/>
  <path d="M356 369.5 c0 -3.2 0.8 -4.8 3.9 -8.2 2.1 -2.4 4.2 -4.3 4.7 -4.3 0.5 0 1.4 -0.8 1.9 -1.8 0.6 -1.1 2.4 -3.7 4 -6 2.5 -3.4 3.6 -4.1 6.3 -4.2 l3.4 0 -2.9 3.8 c-4.4 6 -10.3 13.1 -16 19.1 l-5.3 5.6 0 -4z"/>
  <path d="M383 335.5 c0 -2.8 0.4 -3.5 2 -3.5 1.6 0 2 -0.7 2 -3.4 0 -1.9 0.6 -4.1 1.3 -4.8 0.8 -0.7 1.7 -2.5 2 -4 0.4 -1.5 1.4 -3.3 2.2 -4.2 0.8 -0.8 1.5 -2 1.5 -2.6 0 -0.7 0.8 -3.4 1.7 -6.1 1.4 -3.9 2.2 -4.9 4 -4.9 2.4 0 2.3 0.5 -1 9.6 -3 8.2 -13.4 27.4 -14.9 27.4 -0.4 0 -0.8 -1.6 -0.8 -3.5z"/>
  <path d="M401 292 c0 -4.4 0.3 -5 2 -5 1.8 0 2 0.5 1.6 3.9 -0.8 7.7 -3.6 8.5 -3.6 1.1z"/>
  <path d="M403 275.5 c0 -3.8 0.3 -4.5 1.9 -4.5 1.9 0 2 0.8 1.2 7.8 0 0.6 -0.8 1.2 -1.6 1.2 -1.1 0 -1.5 -1.2 -1.5 -4.5z"/>
  <path d="M403.6 256.3 c-0.7 -9.9 -2.9 -16.9 -5.5 -17.6 -1.2 -0.3 -2.2 -2.2 -3 -5.3 -2.3 -9.7 -5.5 -19 -7.9 -22.8 l-2.4 -3.9 -2.9 4.6 c-1.6 2.6 -3.3 4.7 -3.7 4.7 -1.5 0 -3.2 4.9 -3.8 10.8 -1 10.6 -0.8 10.2 -6.8 10.2 -3.6 0 -5.8 -0.5 -6.6 -1.5 -0.7 -0.9 -2.1 -6 -3.2 -11.3 -2.4 -12.8 -7.3 -22.1 -17.4 -32.8 -3.4 -3.6 -4.8 -4.4 -7.7 -4.4 -4 0 -8.3 -3.1 -12.8 -9.4 -5.1 -7 -3.7 -17.1 3.7 -25.9 1.4 -1.7 2.4 -4.2 2.4 -6 l0 -3 2.5 2.3 c3.3 3.1 3.2 4.8 -1 11 -4.8 7.1 -6.1 13.1 -3.8 17.1 1.4 2.4 3.2 3.4 8.8 5.1 5.6 1.7 7.8 3 11 6.3 5.8 6.3 13.9 20.4 16.4 28.7 4 13.4 4.7 15.2 6.4 16.2 2.1 1.3 3.7 -0.5 3.7 -4.1 0 -3.5 3 -11.6 5 -13.8 1.1 -1.1 3.4 -3.7 5.3 -5.9 2.6 -3 3.8 -3.7 5.5 -3.2 3.1 1 6.1 5.7 9.7 15.5 1.8 4.7 3.8 8.5 4.4 8.3 2.1 -0.4 5.2 9 6.8 20.4 1.6 11.4 1.2 18.4 -1.1 18.4 -0.9 0 -1.5 -2.6 -2 -8.7z"/>
  <path d="M221 255.3 c-1.9 -1.5 -3.6 -3.1 -3.8 -3.5 -0.2 -0.5 -1 -0.8 -1.8 -0.8 -0.8 0 -1.4 -0.4 -1.4 -1 0 -1.7 6.6 -1.1 9 0.8 1.5 1.2 2.1 2.6 1.8 4.5 l-0.3 2.7 -3.5 -2.7z"/>
  <path d="M162.5 218.2 c-1.2 -0.8 -1.3 -6.2 -0.2 -7.9 1.3 -2 5.4 -1.5 7.1 0.8 3 4.3 -2.8 10.2 -6.9 7.1z"/>
  <path d="M383.4 165.4 c-1.6 -2 -6.3 -7.2 -10.4 -11.6 -4.1 -4.4 -8.1 -8.9 -8.8 -9.9 -1.1 -1.7 -1.1 -1.9 0.6 -1.9 2.9 0 12 10.6 20.7 24.3 2.4 3.8 1.4 3.4 -2.1 -0.9z"/>
  <path d="M183.8 139.4 c-0.9 -0.9 -1 -7.6 -0.2 -9.8 0.4 -1 1.8 -1.6 3.6 -1.6 2.4 0 2.8 0.3 2 1.3 -1.7 2 -0.3 5.7 2.2 5.8 1.1 0.1 2.6 0 3.1 -0.1 2.7 -0.7 16 -0.8 16.9 -0.2 1.2 0.7 1.8 0.9 4.1 1.1 0.8 0 1.5 0.8 1.5 1.7 0 1.3 -1.4 1.5 -8.7 1.4 -4.9 -0.1 -12.2 0.1 -16.3 0.5 -4.1 0.4 -7.8 0.4 -8.2 -0.1z"/>
  <path d="M305.5 137.3 c-4.4 -1.4 -8.2 -2.8 -8.5 -3.2 -0.3 -0.4 -2.3 -1.5 -4.5 -2.5 -2.2 -1 -4.9 -2.7 -6 -3.6 -1.1 -1 -4.5 -3.1 -7.5 -4.5 -6.7 -3.3 -8.9 -5.9 -9 -10.3 0 -4.9 1.9 -6.2 9.1 -6.2 5.1 0 6.5 -0.4 8 -2.1 1.8 -2.1 1.8 -2.2 -0.2 -4 -1.2 -1 -3 -2.1 -4 -2.4 -1.2 -0.4 -1.9 -1.6 -1.9 -3 0 -2.2 0.3 -2.3 3.1 -1.5 5.3 1.6 7.8 3.7 8.5 7.7 0.6 3.4 0.4 3.9 -2.7 6.5 -1.8 1.5 -4.1 2.8 -5 2.8 -1 0 -2.4 0.3 -3.3 0.6 -5.4 2.1 3.7 9.3 24.6 19.6 7 3.4 13 6.8 13.3 7.5 0.7 2.1 -5.1 1.5 -14 -1.4z"/>
  <path d="M222 137.1 c0 -0.6 1.4 -1.8 3.1 -2.8 5.1 -3 6.9 -7 6.9 -15.5 0 -8.1 -0.6 -9.1 -5.3 -10.3 -4.5 -1.2 -3.4 -3.5 1.7 -3.5 9.7 0 13.6 3.7 13.6 13 0 6.3 -0.9 8.1 -7.3 14.8 -4.4 4.5 -5.7 5.2 -8.9 5.2 -2.1 0 -3.8 -0.4 -3.8 -0.9z"/>
  <path d="M353.6 132.4 c-6.5 -8 -6.4 -7.9 -4.1 -6.6 3.5 1.9 8.7 7.9 8.3 9.8 -0.2 1.3 -1.2 0.5 -4.2 -3.2z"/>
  <path d="M191 122.2 c0 -3.1 0.4 -4.2 1.5 -4.2 0.8 0 1.5 -0.7 1.5 -1.5 0 -0.8 0.9 -1.5 2 -1.5 1.1 0 2 -0.7 2 -1.5 0 -1 1.1 -1.5 3.5 -1.5 1.9 0 3.5 0.4 3.5 0.8 0 0.5 -2.2 2.3 -5 4.1 -2.7 1.8 -5 3.7 -5 4.2 0 0.5 -0.9 1.9 -2 3.1 l-2 2.2 0 -4.2z"/>
  <path d="M153 121.2 c0 -2 11.5 -8.5 20 -11.4 2.5 -0.9 5.3 -1.9 6.3 -2.3 1.3 -0.6 1.7 -0.2 1.7 1.8 0 2.6 -2 3.7 -6.8 3.7 -1.3 0 -3.3 1 -4.5 2.3 -3.3 3.3 -10.2 6.7 -13.6 6.7 -1.7 0 -3.1 -0.4 -3.1 -0.8z"/>
  <path d="M225 94.6 c0 -0.8 2.4 -2 5.8 -3 7.4 -2 8.2 -2 8.2 0.2 0 1.3 -1.3 2.1 -4.5 3 -6 1.6 -9.5 1.5 -9.5 -0.2z"/>
 </g>
 <g fill="#4c4c45">
  <path d="M307.2 402.6 c2.2 -1.6 1.8 -2.1 -6.2 -5.7 -11.1 -5.1 -16.8 -9 -18 -12.2 -0.7 -2.1 -0.7 -3.4 0.1 -4.3 1.4 -1.8 13.6 -9.8 18.6 -12.3 5.7 -2.9 20.6 -15.3 27.5 -23.1 6.5 -7.4 12.5 -18.8 13.9 -26.9 0.6 -3.1 2.6 -10.5 4.4 -16.6 2 -6.8 3.9 -16.3 4.9 -25 2.5 -21.3 2.3 -20.5 5.7 -21.7 1.6 -0.5 3.4 -1.9 4 -2.9 1 -2 0.3 -8.5 -1.1 -9.4 -1.2 -0.7 -4.9 2.5 -6.6 5.8 -0.9 1.8 -4 5.5 -6.8 8.3 -2.8 2.8 -6.5 6.7 -8.3 8.6 -2.9 3.1 -3.9 3.5 -12 4.5 -10 1.3 -10.8 1 -12.3 -4.8 -0.9 -3.2 -1.5 -3.9 -3.8 -4.1 -5.7 -0.4 -8.5 0.3 -16 4.2 -4.2 2.1 -9.3 4.1 -11.2 4.5 -1.9 0.3 -5.8 1 -8.5 1.4 -6.1 1.1 -16.1 0.6 -27.5 -1.4 -5.3 -0.9 -6 -1.2 -8.3 -3.3 -1.3 -1.2 -2.9 -2.2 -3.5 -2.2 -0.7 0 -1.2 -0.4 -1.2 -0.9 0 -0.5 -2.1 -1.7 -4.7 -2.7 -2.7 -1 -6.8 -3.5 -9.2 -5.6 -2.4 -2.1 -5 -3.8 -5.7 -3.8 -0.8 0 -1.4 -0.5 -1.4 -1.1 0 -0.5 -0.4 -0.8 -0.9 -0.4 -0.6 0.3 -1.5 -0.5 -2.2 -1.7 -0.7 -1.3 -3.4 -4.3 -6.1 -6.7 -9 -8.1 -9 -8.1 -9.3 -26.1 -0.2 -13 0.1 -16.8 1.5 -21 1.6 -4.7 1.6 -5.8 0.4 -11.3 -1.8 -7.6 -0.7 -11.6 4.8 -17 2.3 -2.3 3.8 -4.7 3.8 -6.2 0 -2.3 -0.2 -2.4 -4.4 -1.9 -5.3 0.8 -7.9 -0.5 -11.1 -5.6 -3.7 -5.9 -7.5 -6.2 -17.1 -1.5 -6.6 3.3 -16.1 9.7 -18.9 12.9 -0.5 0.6 -2.4 2.2 -4.1 3.6 -4.9 4.1 -17.7 18.9 -22.8 26.5 -6.1 9 -10.5 18.5 -14.6 31 -3.2 9.7 -3.3 10.5 -3.4 27 0 19.3 2.2 34.5 8.2 56.5 0.5 1.9 1.7 6.9 2.7 11 2.3 10.3 7.6 19.4 19.8 34 5 6.1 15 14 17.6 14 2 0 10.3 4.3 13.9 7.3 2.3 1.7 5.8 4.2 7.9 5.5 11.3 6.8 21 17.2 16 17.2 -4.7 0 -22.7 -4.6 -27.7 -7.1 -3.2 -1.6 -6.2 -2.9 -6.5 -2.9 -0.4 0 -2 -0.9 -3.6 -2.1 -1.6 -1.1 -2.9 -1.8 -2.9 -1.5 0 0.3 -4.2 -3.5 -9.2 -8.3 -5.1 -4.9 -11.5 -10.7 -14.3 -12.9 -10 -8.1 -12.6 -10.9 -18.4 -19.7 -5.9 -8.9 -6 -9 -3.5 -9.3 1.9 -0.3 3.4 0.7 6.4 4 2.2 2.4 3.9 3.7 4 3.1 0 -0.7 -0.3 -1.3 -0.8 -1.3 -0.4 0 -1.6 -1.7 -2.7 -3.7 -1.1 -2.1 -2.5 -4.2 -3.2 -4.6 -0.7 -0.4 -1.3 -1.5 -1.3 -2.2 0 -0.8 -0.4 -1.5 -1 -1.5 -0.5 0 -1 -0.8 -1 -1.8 0 -1 -1.1 -3.3 -2.4 -5.1 -3.2 -4.3 -4.3 -14.6 -2.2 -21.4 1.2 -4 1.3 -7.2 0.4 -19 -1.4 -19.6 -0.5 -45 2.1 -55.2 2.5 -10.3 6.6 -21.5 10.2 -28.1 8.7 -16.2 23.1 -33.9 36.3 -44.8 10.8 -8.9 20 -18.8 23.5 -25.6 4.5 -8.6 5.4 -9.6 13.8 -14.2 4 -2.2 7.3 -4.1 7.3 -4.3 0 -2.1 -28.5 12 -41.5 20.5 -10.5 6.9 -23.8 17.3 -27.9 21.9 -1.3 1.5 -3.1 2.1 -5.8 2.1 l-4 0 4 -4.8 c9.1 -10.7 28.8 -28.2 32 -28.2 0.6 0 1.2 -0.5 1.2 -1.1 0 -0.5 0.4 -0.8 0.9 -0.4 0.6 0.3 1.4 -0.3 2 -1.2 0.6 -1 1.1 -1.4 1.1 -0.9 0 0.5 0.7 0.3 1.5 -0.4 0.8 -0.7 1.5 -0.9 1.5 -0.6 0 0.4 0.9 -0.2 2.1 -1.3 1.1 -1 3.5 -2.2 5.2 -2.5 1.8 -0.3 4.5 -1.3 6.1 -2.1 1.5 -0.8 5.1 -2.2 8 -3 2.8 -0.8 10.3 -3 16.6 -5 30.2 -9.5 34.6 -10.5 47.5 -10.5 21.1 0 36.7 3.5 41.8 9.3 2 2.4 2.1 3.1 0.5 6 -1.9 3.7 -4 4.6 -10.1 4.7 -10.9 0 -11 4.8 -0.3 10.1 3.2 1.6 7.2 4 8.8 5.4 1.6 1.4 3.3 2.3 3.8 2 0.4 -0.3 1.3 0.2 2 1 0.7 0.8 1.9 1.5 2.6 1.5 0.8 0 1.4 0.5 1.4 1 0 0.6 0.3 0.9 0.8 0.8 0.4 -0.1 2 0.4 3.6 1.1 1.6 0.6 3.8 1.3 5 1.6 1.1 0.2 2.2 0.4 2.4 0.6 0.1 0.1 0.5 0.2 1 0.4 5.1 1.4 6.2 1.8 6.2 2.6 0 0.5 0.6 0.9 1.3 0.9 1.9 0 9.7 7.4 9.7 9.1 0 0.8 -0.9 2.8 -2 4.4 -4.4 6.6 -6.5 10 -6.5 10.7 0 0.3 -0.3 1 -0.7 1.4 -1.7 1.6 -0.7 6.3 2.1 10 4.5 6.3 8.8 9.4 12.8 9.4 2.9 0 4.3 0.8 7.7 4.4 10.1 10.7 15 20 17.4 32.8 2 10.6 3.2 12.8 6.8 12.8 2.6 0 2.9 -0.8 3.9 -10.4 0.6 -6.1 1.9 -9.6 4.1 -10.9 0.7 -0.4 2.3 -2.5 3.5 -4.6 2.3 -4.2 4.3 -5.2 7.5 -4 3.7 1.3 6.7 8.1 11.7 26.4 0.8 2.8 1.9 4.9 2.6 4.7 0.6 -0.1 2.1 1.9 3.3 4.5 2 4.4 2.2 6.5 2.2 22.8 0 20.5 -1.6 31.6 -6.5 44.7 -3.7 9.9 -9.2 21.4 -13.6 28.5 -1.8 2.9 -3.3 5.5 -3.3 5.9 0 0.4 -1.5 2.1 -3.2 3.9 -1.8 1.7 -4.5 4.7 -5.9 6.6 -1.5 1.9 -5.2 6.1 -8.3 9.4 -3.2 3.3 -6.3 7.1 -6.9 8.4 -1.8 3.6 -10.3 10.5 -12.2 9.8 -1.8 -0.7 -2.1 -7.1 -0.5 -11.2 1.2 -3.2 6.6 -8.6 13.6 -13.7 20.8 -15.2 38.1 -50.9 41 -84.6 0.6 -7.7 0.5 -8.6 -1.6 -11.3 -1.5 -2.1 -2.8 -6.6 -4.1 -14.2 -3.3 -18.5 -7.2 -30.7 -9.8 -30.7 -0.5 0 -2.5 1.8 -4.5 4 -3.6 4 -3.6 4.1 -3.6 12.9 0 9.7 -0.5 12.1 -2.5 12.1 -2.3 0 -5.2 4.8 -6 9.7 -0.5 3.5 -1.5 5.5 -4 7.7 -5.8 5.5 -6.8 9.5 -7 28.1 0 7.2 -0.7 16.4 -1.4 20.5 -0.7 4.1 -1.6 10 -2.1 13.1 -0.9 5.9 -3.4 11.8 -7 15.9 -1.1 1.4 -4.2 5 -6.8 8 -5.1 5.8 -15.5 16 -21.2 20.6 -11 8.7 -14.5 13.6 -12.2 17 1 1.7 7.4 5.4 9.2 5.4 0.8 0 3.2 0.5 5.3 1.1 3 0.8 3.7 1.5 3.7 3.5 0 2.2 -1.1 3.1 -8.4 6.5 -8.5 3.9 -12.8 5.1 -9.4 2.5z m-30.8 -141.1 c3.3 -0.8 10.6 -3.6 16.1 -6.2 5.5 -2.5 11.1 -5.1 12.4 -5.7 1.4 -0.6 3.2 -2.4 4 -4 0.9 -1.6 2.3 -3.7 3.2 -4.6 0.8 -0.9 1.8 -2.4 2.2 -3.3 0.4 -1.1 1.8 -1.7 3.8 -1.7 3.5 0 5.9 2.2 9 8.2 l1.9 3.8 3.5 -3.8 c1.9 -2.1 4.4 -6.1 5.5 -8.8 2.6 -6 5.9 -9.6 11.1 -12 3.7 -1.6 3.9 -2 3.4 -4.8 -0.6 -2.6 -7 -17.4 -8 -18.5 -0.2 -0.2 -1.2 0.4 -2.1 1.4 -1.5 1.5 -2.9 1.6 -8.3 1.1 -3.6 -0.4 -6.8 -1 -7.1 -1.4 -0.3 -0.4 -2.7 -1.5 -5.5 -2.5 -8.3 -3 -11 -5.4 -12.5 -10.9 -1.2 -5 -0.7 -13.7 1.1 -18.5 0.6 -1.5 0.5 -2.3 -0.2 -2.3 -0.8 0 -1 -2.2 -0.6 -6.8 0.4 -5.7 0.1 -7.2 -1.7 -9.9 -1.2 -1.8 -3.8 -4 -6 -4.8 -2.2 -0.9 -5.1 -2.5 -6.5 -3.6 -1.4 -1.1 -5.5 -4.2 -9 -7 -11.1 -8.6 -17.8 -10.6 -30.6 -9.4 l-7.6 0.7 -3.6 4.9 c-2.5 3.6 -5.3 5.9 -9.5 8 -7.1 3.6 -17.2 6.9 -21.3 6.9 -1.6 0 -4.1 0.7 -5.5 1.5 -2.5 1.4 -2.5 1.4 1.6 1.5 5.2 0 7.4 2.9 7.4 9.5 0 5.7 -1 7.7 -6.7 13.6 l-4.4 4.6 1.2 4.7 c1.3 5.1 0.8 15.1 -0.9 18.2 -2 3.7 -2.8 7.9 -2.1 11.4 2.4 11.6 6.3 19.3 11.6 23.3 1.6 1.2 6.6 6.1 11.2 10.9 4.6 4.8 9.3 9 10.5 9.4 1.1 0.3 3.6 1.8 5.5 3.2 6.6 4.9 21.6 6.6 33.5 3.7z m-80.4 -126 c4.2 -1.2 11.4 -1.3 12.8 -0.3 0.7 0.6 4.5 0.9 9.3 0.6 l8 -0.5 5 -4.9 c7.9 -7.7 9.4 -11.7 6.4 -17.4 -3.3 -6.3 -18.1 -6.8 -29.5 -0.9 -9.7 5.1 -11.8 6.7 -15.5 12.3 -1.9 2.8 -4.2 6.1 -5.1 7.3 -3.3 4.5 0.3 6.1 8.6 3.8z m83.8 -32.1 c1.2 -0.4 2.2 -1 2.2 -1.4 0 -1.7 -8.9 -4.8 -18.3 -6.5 -13.1 -2.3 -23.9 -1.7 -34.9 2.1 l-8.3 2.9 10.4 1.2 c5.7 0.7 10.9 1.4 11.5 1.7 1.7 0.7 34.8 0.7 37.4 0z"/>
  <path d="M171.8 182.3 c-0.7 -3.1 0.3 -5.3 2.8 -5.9 3.3 -0.8 5.4 0.1 5.4 2.5 0 3.9 -7.3 6.9 -8.2 3.4z"/>
  <path d="M369.9 149.7 c-13.2 -13.7 -23.7 -25.9 -20.8 -24.2 3.6 2.2 13.7 11.7 19.8 18.7 5.8 6.7 15.9 19.9 14.9 19.7 -0.2 0 -6.4 -6.4 -13.9 -14.2z"/>
 </g>
 <g fill="#5a5b54">
  <path d="M322 395.4 c0 -0.8 -0.4 -1.2 -1 -0.9 -0.5 0.3 -1 0.1 -1 -0.5 0 -0.7 -0.6 -1 -1.4 -0.7 -0.8 0.3 -1.7 0.3 -2 -0.1 -0.4 -0.3 -1.6 -0.7 -2.8 -0.9 -3.2 -0.5 -9.7 -4.4 -10.3 -6.2 -0.2 -0.9 -0.7 -3.2 -1 -5.2 -0.7 -4.3 1.5 -7.3 10.9 -15.2 8.6 -7 18.3 -16.3 23.8 -22.7 2.6 -3 5.7 -6.6 6.8 -8 2.7 -3.1 5.3 -8 4.3 -8 -0.5 0 -0.2 -0.4 0.5 -0.9 0.7 -0.4 1.7 -3.4 2.2 -6.7 0.5 -3.2 1.4 -9.3 2.1 -13.4 0.7 -4.1 1.2 -11.6 1 -16.7 -0.3 -9.5 1.3 -23.3 3.1 -26.8 0.6 -1.1 2.5 -3.4 4.3 -5.1 2.5 -2.2 3.5 -4.2 4 -7.7 0.8 -4.9 3.7 -9.7 6 -9.7 2 0 2.4 -2.2 2.1 -10.4 -0.3 -8.8 0.5 -11 6.2 -17 4.8 -5.1 5.3 -5.3 7.7 -3 4.2 4.2 7 13 10.4 32.1 1.3 7.7 2.6 12.1 4.2 14.2 2.1 2.8 2.2 3.7 1.6 13.8 -1.3 23.2 -8.2 45 -20.1 63.8 -6.4 10.2 -14.5 19.5 -21 24.2 -11.2 8.2 -16.8 16.2 -13.2 18.9 1.4 1 1.1 1.6 -2.6 4.5 -8.3 6.6 -22.4 15.9 -24.2 15.9 -0.3 0 -0.6 -0.7 -0.6 -1.6z m6.1 -17 c1.4 -0.7 5.9 -4.7 10 -8.9 4.1 -4.2 11.5 -11 16.4 -15 15.6 -12.5 23.7 -22.6 31.6 -38.7 7.9 -16.5 13 -39 10 -44.6 -0.5 -1 -1.4 -7.8 -2.1 -15.2 -0.6 -7.4 -1.5 -15.5 -2.1 -18 -2.6 -12.2 -3.3 -14.7 -4.7 -17.6 l-1.4 -3.1 -3.5 3.6 -3.4 3.6 0.6 9.8 0.7 9.9 -5.1 4.9 c-2.9 2.8 -5.1 5.7 -5.1 6.9 0 2.6 -3.8 10.2 -5.6 11.3 -2.8 1.6 -4.8 13.2 -2.6 14.6 0.5 0.3 2.3 4 4.1 8.1 5.2 12.5 3.7 23.9 -4.8 36.5 -1.7 2.5 -3.8 5.9 -4.6 7.6 -0.9 1.6 -4.3 5.7 -7.6 9.1 -3.3 3.4 -7.2 7.7 -8.7 9.7 -1.5 2 -4.1 5 -5.9 6.7 -1.8 1.7 -3.3 3.5 -3.3 4 0 0.6 -1.3 2 -3 3.2 -1.6 1.3 -3 2.9 -3 3.7 0 0.8 -0.5 1.5 -1 1.5 -1 0 -1.9 1.7 -3.4 6.8 -0.7 2.1 -0.5 2.2 2.1 1.6 1.5 -0.4 4 -1.3 5.4 -2z"/>
  <path d="M166.7 384.5 c-4.7 -2.4 -11.9 -6.6 -12.7 -7.5 -0.3 -0.3 -3 -2.5 -6 -5 -3 -2.4 -7.1 -6 -9 -8 -1.9 -2 -6.4 -5.6 -9.9 -8.1 -9.7 -6.6 -20.2 -19.4 -26.7 -32.2 -8.2 -16.2 -14.7 -37.7 -11.4 -37.7 0.6 0 1 -0.7 1 -1.5 0 -0.8 0.4 -1.5 0.9 -1.5 0.5 0 2.5 -3.4 4.5 -7.6 3.9 -7.9 5.6 -15.3 5.6 -24.2 0 -8.7 3.8 -30.6 7.1 -41 7 -21.9 19.9 -41.2 39.7 -59.7 13.5 -12.6 20.2 -19.6 20.2 -21.2 0 -0.8 0.8 -2.7 1.8 -4.1 3.6 -5.2 3.6 -5.5 0.1 -3.6 -5.9 3 -21.2 13.5 -27.4 18.8 -6.4 5.4 -20.6 19.6 -24.3 24.2 -5.4 7 -8.1 11 -8.2 12.2 0 0.6 -0.7 1.2 -1.5 1.2 -0.8 0 -1.5 0.7 -1.5 1.5 0 1 -1.1 1.5 -3.5 1.5 l-3.5 0 3.1 -5.8 c5.6 -10.1 16 -25.2 18.4 -26.4 1.3 -0.7 5.8 -4.4 10.1 -8.2 18 -15.7 45.7 -31.3 67.9 -38.1 6.6 -2 16.5 -5.2 22 -7.1 10.1 -3.4 23.9 -5.6 30.5 -4.8 11.3 1.4 23.1 3.9 26.8 5.7 5.4 2.5 7.4 6 4.8 8.5 -1.4 1.4 -4.5 1.8 -20 2.2 -10 0.3 -20.3 0.2 -22.7 -0.2 -18.2 -2.8 -21.8 -3 -28.1 -1.3 -5.9 1.5 -24.1 10.8 -28.1 14.3 -1 0.9 -3.5 4.8 -5.5 8.7 -3.8 7.3 -12.6 16.9 -23.8 26.1 -17.8 14.6 -34.9 38.1 -41.9 57.5 -6.9 19.1 -8.5 35.7 -6.6 65.6 1 15.4 1 18.9 -0.2 23 -1.8 6 -0.9 12.9 2.1 16.8 1.2 1.5 2.2 3.6 2.2 4.6 0 1.1 0.5 1.9 1 1.9 0.6 0 1 0.7 1 1.5 0 0.7 0.6 1.8 1.3 2.2 0.7 0.4 2.1 2.5 3.2 4.6 1.1 2 2.3 3.7 2.7 3.7 0.5 0 0.8 0.5 0.8 1 0 1.2 4.1 7.3 5.3 7.8 0.4 0.2 0.7 0.8 0.7 1.4 0 0.6 1 2.1 2.3 3.4 1.2 1.3 3.6 3.9 5.2 5.9 3.9 4.8 16.3 14.1 24.5 18.4 6.3 3.4 16 10.8 16 12.4 0 1.4 -6 0.3 -10.3 -1.8z m101.3 -285.6 c-7.5 -2.7 -19.4 -3.5 -27 -1.9 -3.3 0.7 -5.8 1.5 -5.6 1.8 1.4 1.3 8.7 2 22.6 2 l15.5 0.1 -5.5 -2z"/>
  <path d="M248.4 264.6 c-2.8 -0.7 -6.6 -2.4 -8.5 -3.8 -1.9 -1.4 -4.4 -2.9 -5.5 -3.2 -1.2 -0.4 -5.9 -4.6 -10.5 -9.4 -4.6 -4.8 -9.6 -9.7 -11.2 -10.9 -2.9 -2.2 -8.7 -10.5 -8.7 -12.6 -0.1 -0.7 -0.8 -3 -1.6 -5.2 -2.9 -7.7 -2.8 -14.4 0.3 -22.5 2.3 -5.9 2.5 -8.6 0.9 -14.4 -0.8 -3.2 -1.2 -6.5 -0.9 -7.4 0.4 -1 2.8 -4 5.4 -6.8 2.7 -2.9 5.1 -6.4 5.5 -7.9 1 -3.8 -1.6 -7.8 -5.2 -8.2 -6.3 -0.7 -7.4 -1.3 -7.4 -3.7 0 -2.5 2.2 -5.1 3.3 -3.9 0.4 0.3 0.7 0.2 0.7 -0.3 0 -0.6 1.9 -1.1 4.3 -1.3 5.5 -0.3 15.1 -3.2 22.5 -7 4.2 -2.1 7 -4.4 9.5 -7.9 4.2 -5.8 5.2 -6.1 21.2 -5.8 12.8 0.3 16.3 1.5 26.6 9.5 3.5 2.8 7.6 5.9 9 7 1.4 1.1 4.3 2.7 6.5 3.6 5.4 2.2 9.8 8.5 9 12.8 -1.5 7.5 -1.5 8.7 -0.5 8.7 1.2 0 0.9 4.3 -1 13.3 -0.8 3.8 -0.7 5.6 0.4 8.3 0.8 1.9 1.1 3.4 0.8 3.4 -1.4 0 5 4.2 9.2 6 4.2 1.8 4.6 1.8 3.4 0.3 -1.2 -1.5 -1 -1.4 1.8 0.2 1.8 1 3 2.2 2.7 2.7 -0.3 0.4 0.2 0.5 1 0.2 0.8 -0.3 2.3 -0.1 3.4 0.5 2.2 1.2 5.5 0.4 4.6 -1 -0.3 -0.5 -0.1 -0.9 0.5 -0.9 0.6 0 0.7 -1.5 0.4 -3.6 -0.6 -3.3 -0.4 -3.5 1.3 -2.6 3.1 1.6 4.9 4.2 8.9 12.2 3.7 7.7 6.8 18.2 5.9 20.5 -0.3 0.7 -2.3 2 -4.4 3 -5 2.3 -8.4 5.9 -10.9 11.8 -2.5 5.8 -9.9 14.7 -12.3 14.7 -1.1 0 -2.7 -1.9 -4.2 -4.7 -4.1 -7.8 -3.9 -7.7 -7.4 -5.9 -2.7 1.4 -3.9 3 -4.3 6.1 -0.2 1.2 -6.3 5.5 -7.9 5.5 -0.6 0 -4.7 1.9 -9.3 4.2 -11.4 5.7 -20 7.8 -32.2 7.7 -5.5 0 -12.3 -0.6 -15.1 -1.3z m25.9 -8.1 c2 -0.8 4.8 -1.5 6.2 -1.5 2.9 0 12.4 -4.1 16.7 -7.1 4.2 -3 8.5 -13.1 9.7 -22.8 1 -7.3 0.8 -9.3 -1 -16.8 -1.2 -4.7 -3.4 -10.6 -5 -13.1 -1.6 -2.5 -2.9 -5.2 -2.9 -5.9 0 -0.7 -0.4 -1.3 -0.9 -1.3 -1.6 0 -6 -11.8 -6.7 -17.9 -0.5 -4.8 -1.3 -6.8 -3.9 -9.8 -4.9 -5.8 -6.2 -9.1 -7 -17.5 -0.8 -8.9 -1.7 -9.8 -11 -12.3 -4.1 -1 -6.9 -1.2 -10.3 -0.5 -5.8 1.1 -8.2 2 -8.2 3 0 0.4 -4.5 3.8 -9.9 7.4 -5.4 3.7 -11.1 7.8 -12.6 9.2 -2.7 2.5 -2.7 2.5 -1.1 6.7 0.9 2.4 1.6 6.2 1.6 8.5 0 3.4 -0.3 4.2 -1.8 4.2 -1.1 0 -2.9 0.9 -4.2 2 -1.3 1.1 -2.7 2 -3.2 2 -0.5 0 -1.4 0.5 -2.1 1 -0.7 0.6 -2.1 1.7 -3.2 2.4 -1.9 1.4 -1.9 1.5 -0.2 5 1.8 3.9 2.3 12.1 0.8 13 -1.7 1.1 -4.4 11.5 -3.7 14.3 3.8 16.2 3.6 15.8 15.2 27.5 13.2 13.5 20 18.7 26.2 20.4 6.6 1.8 18.2 1.7 22.5 -0.1z"/>
  <path d="M236.3 167.7 c-4.4 -1.1 -5.3 -2.5 -5.3 -8.3 0 -1.7 0.8 -3.7 1.8 -4.6 2.9 -2.5 10.4 -4.7 18.4 -5.4 9.9 -0.9 12.8 0.6 12.8 6.6 0 2.1 -0.6 4.5 -1.4 5.2 -3.8 3.7 -6.1 5 -9.2 5.5 -1.9 0.3 -3.7 1 -4 1.4 -0.7 1.1 -7.7 0.9 -13.1 -0.4z"/>
  <path d="M86.3 242.3 c0.4 -7.1 1.2 -14.8 1.7 -17.3 0.6 -2.5 1.2 -5.5 1.5 -6.7 0.3 -1.5 1.3 -2.3 2.5 -2.3 2.5 0 2.5 2.2 0.5 13.5 -0.8 4.4 -1.8 11.9 -2.1 16.8 -0.6 7.8 -0.9 8.7 -2.7 8.7 -1.9 0 -2 -0.4 -1.4 -12.7z"/>
  <path d="M99.7 186.5 c0.9 -1.9 2.3 -3.5 3 -3.5 0.8 0 1.3 1.3 1.3 3.5 0 3.2 -0.2 3.5 -3 3.5 l-3 0 1.7 -3.5z"/>
  <path d="M367.9 144.3 c-6.9 -7.3 -10.7 -11.8 -9.3 -11 1.3 0.7 15.8 16.7 15.2 16.7 -0.2 0 -2.8 -2.6 -5.9 -5.7z"/>
 </g>
 <g fill="#66675d">
  <path d="M317.8 383.9 c-1 -0.5 -1.8 -1.8 -1.8 -2.7 0 -2.7 3.6 -11.6 4.9 -12 0.6 -0.2 0.9 -0.7 0.6 -1.2 -0.3 -0.4 1 -2 2.7 -3.6 1.8 -1.5 3.3 -3.1 3.3 -3.5 0 -0.4 1.6 -2.3 3.5 -4.1 1.9 -1.8 4.7 -4.9 6.2 -6.9 1.5 -2 5.4 -6.3 8.7 -9.7 3.3 -3.4 6.7 -7.5 7.6 -9.1 0.8 -1.7 2.9 -5.1 4.6 -7.6 5.9 -8.7 10.3 -24.5 6.9 -24.5 -0.5 0 -0.9 -0.3 -0.8 -0.7 0.4 -1.4 -3.6 -11.3 -4.6 -11.3 -0.5 0 -0.7 -0.3 -0.3 -0.6 0.3 -0.4 0 -1.2 -0.7 -2 -2.9 -2.8 -0.8 -17 2.8 -19.9 1.9 -1.5 5.6 -9.1 5.6 -11.5 0 -1.1 2.1 -4 4.8 -6.6 l4.7 -4.5 -0.3 -10.2 -0.3 -10.2 4.4 -4.8 c3.1 -3.4 4.9 -4.6 6.1 -4.1 2.2 0.8 5 6.5 6.4 12.9 0.6 2.8 1.6 7 2.1 9.5 0.6 2.5 1.5 10.6 2.1 18 0.7 7.4 1.7 14.6 2.4 16 2.4 4.9 -0.6 25.5 -5.7 39 -7.9 21.1 -17.9 34.8 -36.2 49.5 -4.9 4 -12.2 10.6 -16.2 14.7 -8.6 8.8 -10.9 10.8 -11.7 10.1 -0.3 -0.4 -0.6 -0.2 -0.6 0.4 0 0.6 -1 1.1 -2.2 1 -1.3 0 -3.4 0.3 -4.8 0.6 -1.4 0.4 -3.3 0.2 -4.2 -0.4z m26.4 -21.9 c26.7 -22.6 32 -28.5 39.7 -43.9 7.7 -15.3 10.5 -24.9 10.5 -35.6 -0.1 -15.8 -3.8 -49.5 -6.6 -58.7 -2.3 -7.7 -4.4 -2.8 -2.9 6.7 0.5 3.3 1.5 9.6 2.2 14 1 6.7 1 9.7 -0.2 17.5 -0.8 5.8 -2 10.1 -3 11.1 -0.9 0.9 -1.8 3.9 -2.1 6.9 -0.3 2.9 -0.9 5.5 -1.4 5.9 -0.5 0.3 -1.5 3.1 -2.1 6.3 -0.6 3.1 -4.3 12.1 -8.2 20 -7.4 15.2 -15.2 27.5 -25 39.8 -6.1 7.5 -14.1 18.7 -14.1 19.7 0 1.1 2.5 -0.7 13.2 -9.7z m30.4 -84.7 c0.4 -2.3 0 -6.4 -1.1 -11.2 l-1.8 -7.6 -1.2 5.2 c-0.7 2.9 -1.8 5.9 -2.5 6.8 -1.5 1.8 -0.7 8.4 1.2 9.7 2.9 1.8 4.7 0.8 5.4 -2.9z"/>
  <path d="M91.9 297.4 c-1.7 -4.6 -4.8 -19.6 -4.2 -21 0.2 -0.7 1.6 -2 2.9 -2.9 1.3 -0.8 2.4 -2.2 2.4 -2.9 0 -0.8 1.2 -2.8 2.6 -4.5 3.1 -3.7 4.9 -9.9 6.9 -24.5 1.7 -12.1 1.7 -12.3 4.1 -22.1 6.1 -26 20.7 -49.9 42.9 -70.5 12.6 -11.7 18.1 -17.8 19.7 -21.9 1.1 -2.6 1.2 -3.9 0.5 -3.4 -0.7 0.3 -5.7 3.6 -11.2 7.2 -5.5 3.6 -10.4 6.8 -11 7 -0.5 0.2 -1.6 1.2 -2.3 2.3 -0.7 1 -2.4 1.8 -3.8 1.8 -1.5 0 -2.4 0.6 -2.4 1.6 0 0.9 -1.5 3.1 -3.3 4.8 -5.2 5 -18.1 20.6 -21.9 26.6 -5.5 8.8 -14.1 27.9 -17.3 39 -2.4 8 -5.4 25.2 -6 34.8 -0.6 8.2 -0.9 9.2 -2.7 9.2 -1.8 0 -1.9 -0.5 -1.3 -7.2 0.4 -4 1.1 -10.7 1.7 -14.8 0.6 -4.1 1.1 -9.1 1.3 -11.1 0.1 -2 0.5 -4.1 0.9 -4.7 0.3 -0.6 0.2 -1.2 -0.3 -1.4 -2 -0.7 7.8 -31.8 10.1 -31.8 0.5 0 0.7 -0.4 0.4 -0.8 -0.9 -1.4 3.3 -9.4 4.5 -8.6 0.8 0.5 0.9 0.3 0.5 -0.5 -0.5 -0.8 0 -1.4 1.3 -1.8 2.3 -0.6 2.6 -1.4 1.1 -2.9 -0.6 -0.6 -0.5 -1.5 0.1 -2.4 0.9 -1.3 1 -1.2 0.5 0.3 -1 3.1 1 1.8 4 -2.5 4.1 -5.9 5.2 -7.2 14.6 -16.8 10.8 -11.1 18.2 -17.3 29.3 -24.7 9.9 -6.5 29 -16.5 37.3 -19.4 7.2 -2.5 7 -0.3 -0.5 4.7 -11.8 7.7 -20.3 16.4 -20.3 20.8 0 1.5 -6.7 8.5 -20.2 21.1 -30.9 28.8 -43.6 56.3 -46.9 101.9 -0.6 8.8 -1.5 14.2 -2.9 17.2 -1 2.4 -1.6 4.4 -1.3 4.4 0.3 0 0 0.7 -0.7 1.5 -0.7 0.8 -1 1.5 -0.6 1.5 0.3 0 -0.2 0.9 -1.1 1.9 -3.4 3.8 -4.2 4.9 -3.6 5.5 0.3 0.3 0 0.8 -0.8 1.1 -1 0.4 -1.4 2.2 -1.3 6 0.1 3 0 5.5 -0.3 5.5 -0.2 0 -0.8 -1.2 -1.4 -2.6z"/>
  <path d="M286 255.6 c0 -2.2 0.4 -2.6 3 -2.6 1.7 0 3 -0.5 3 -1.1 0 -0.6 1.4 -2.2 3.2 -3.7 3.4 -2.9 7.8 -11.7 9.7 -19.6 2.2 -8.8 -2 -27.3 -7.7 -34.5 -6.8 -8.6 -12.7 -14.2 -19.3 -18.7 -5.8 -3.8 -7.3 -4.4 -12 -4.4 -3 0 -7.9 0.7 -10.9 1.5 -3 0.8 -8.2 1.5 -11.5 1.5 -8.5 0 -23.3 1.8 -25.8 3.2 -2.1 1.1 -2.1 1.1 0.6 3.2 3.6 2.9 3.7 9 0.3 14.9 -1.3 2.3 -3.1 7.1 -4 10.5 -1.5 5.8 -1.5 6.9 0 12.5 0.8 3.4 2.4 7.4 3.5 8.9 1 1.5 1.9 4.1 1.9 5.9 l0 3.1 -3.4 -2.9 c-4.1 -3.4 -4.8 -4.7 -7.5 -14.8 -2.8 -10.2 -2.9 -11.1 -2 -15.4 1.4 -6.7 1.8 -8 3 -10.3 1.8 -3.2 1.7 -4.7 -0.3 -9 -2.7 -5.6 -2.3 -8.6 1.2 -10.6 1.6 -0.9 3 -2 3 -2.4 0 -0.5 0.7 -0.8 1.5 -0.8 0.8 0 1.5 -0.5 1.5 -1.1 0 -0.5 0.5 -0.7 1 -0.4 0.6 0.3 1 0.2 1 -0.4 0 -0.9 3.8 -2.7 5.1 -2.3 1 0.2 0.1 -4.8 -1.1 -6.3 -0.7 -0.8 -0.9 -1.5 -0.4 -1.5 0.4 0 0.3 -0.5 -0.4 -1.2 -2.1 -2.1 -1.4 -6.5 1.7 -9.5 1.6 -1.6 7.4 -6 13 -9.7 5.6 -3.8 10.1 -7.2 10.1 -7.6 0 -1.2 5.9 -3 12.1 -3.7 6.1 -0.6 16.2 1.5 20.5 4.4 2.9 1.8 4.6 5.3 3.4 6.8 -1.1 1.4 0.5 11.8 1.9 12.3 0.6 0.2 0.9 0.7 0.6 1.2 -0.3 0.4 1.3 3 3.5 5.6 2.9 3.5 4 5.8 4 8.1 0 1.8 0.5 3.3 1.1 3.3 0.6 0 0.8 0.9 0.4 2.1 -0.8 2.3 4 14.9 5.6 14.9 0.5 0 0.9 0.6 0.9 1.3 0 0.7 1.3 3.4 2.9 5.9 3.1 4.9 7.7 21.3 7.4 26.3 -0.7 11.2 -2.1 17.2 -5.4 24.2 -3.2 6.6 -5.4 8.7 -13.4 12.3 -2.7 1.3 -5.3 2.5 -5.7 2.7 -0.5 0.2 -0.8 -0.7 -0.8 -2.1z m-39.5 -90.6 c0.3 -0.5 1.7 -1 3 -1 1.3 0 2.7 -0.5 3 -1 0.4 -0.6 1.1 -0.8 1.6 -0.5 0.5 0.4 0.9 0.2 0.9 -0.3 0 -0.5 1.1 -1.5 2.4 -2.2 1.4 -0.7 2.8 -2 3.1 -2.9 0.8 -2 -2.9 -5.1 -5.9 -5 -1.9 0.1 -1.9 0.2 0.3 0.8 1.4 0.4 2.6 1.3 2.9 2.1 0.2 1 0.1 1.1 -0.5 0.3 -0.4 -0.6 -2.9 -1.4 -5.5 -1.8 -5 -0.8 -12.7 1.4 -16 4.4 -2.1 1.9 -1.4 6.3 0.8 5.4 0.8 -0.3 2.1 0 2.9 0.7 0.8 0.7 1.5 0.9 1.5 0.4 0 -0.4 0.5 -0.3 1.2 0.4 1.5 1.5 3.5 1.6 4.3 0.2z"/>
  <path d="M230.5 247.4 l-3 -2.9 2.8 -0.3 c3.6 -0.4 3.9 -0.1 3.5 3.3 l-0.3 2.7 -3 -2.8z"/>
  <path d="M235.6 102.9 c-2.2 -0.5 -4.5 -1.4 -5.1 -1.9 -0.7 -0.5 -1.4 -0.7 -1.8 -0.4 -0.3 0.3 -0.3 -0.3 0 -1.4 1 -3.8 9.1 -6.2 21.4 -6.2 10 0 16.2 1 24.1 4 6.1 2.3 8.3 5.4 4.4 6.4 -3.4 0.9 -38.7 0.5 -43 -0.5z m20.2 -4.6 c-2.1 -0.2 -5.7 -0.2 -8 0 -2.4 0.2 -0.7 0.4 3.7 0.4 4.4 0 6.3 -0.2 4.3 -0.4z"/>
 </g>
 <g fill="#71726a">
  <path d="M327.6 375.5 c-1.7 -4.5 1.5 -10.4 14.4 -26.5 3.4 -4.1 8.8 -11.5 12.1 -16.5 10 -14.9 23.8 -44.9 21.7 -47.1 -0.3 -0.2 -2.1 -0.5 -4 -0.6 -5 -0.2 -6.7 -1.8 -8 -8 -1 -5 -1 -5.8 0.9 -8.9 1.2 -1.9 2.4 -5 2.8 -6.9 1 -5.3 2.6 -10 3.3 -10 2.2 0.1 3.5 2.5 5.2 9.9 1.1 4.5 2.1 9.4 2.1 10.9 l0.1 2.7 0.8 -3 c0.4 -1.6 0.8 -2.3 0.9 -1.5 0.4 3.5 2.9 -2.3 3.6 -8.3 1.3 -10.5 1.3 -11 0 -18.2 -3.9 -21.4 -3.8 -20.9 -2.2 -24.1 3.5 -6.8 6.8 -6.7 9.1 0.4 2 6 4.4 22 5.6 37.5 0.5 6.7 1.4 14.7 2 17.7 2 10.8 -2.2 28.3 -11.1 46.1 -7.5 15.1 -12.7 20.9 -38 42.4 -11.8 10.2 -14.8 12.3 -18 13 -1.9 0.5 -2.8 0.2 -3.3 -1z m28.5 -26.1 c10.3 -9.4 11.3 -10.5 18.3 -19.8 6.4 -8.4 13.7 -23.1 16 -32.2 1.7 -6.7 1.9 -11 0.9 -19.2 l-0.6 -5.3 -3.7 10.8 c-7.4 21.6 -22.5 49.5 -35.7 66.1 -5.5 6.9 -5.7 7.2 -4.6 7.2 0.5 0 4.7 -3.4 9.4 -7.6z"/>
  <path d="M88.3 282.5 c-2.2 -11 -2.6 -19.3 -1.3 -32.7 2 -22 5.1 -36.6 11 -51.3 7.7 -19.1 12.5 -27.5 23.6 -40.6 10.3 -12.2 20.2 -21 32.9 -29.4 14.7 -9.7 36.2 -20.8 39.5 -20.4 2.1 0.3 1 1.4 -8.1 7.7 -10 6.8 -10.8 7.6 -13.2 13.2 -2.6 5.9 -6 9.8 -20.3 23 -22.2 20.7 -36.7 44.5 -42.8 70.5 -2.4 9.8 -2.4 10 -4.1 22.1 -2 14.6 -3.8 20.8 -6.9 24.5 -1.4 1.7 -2.6 3.7 -2.6 4.4 0 0.7 -1.2 2.2 -2.7 3.3 -2.1 1.5 -2.8 3.1 -3.3 6.8 l-0.6 4.9 -1.1 -6z m6 -24.2 c3.2 -5.1 6.7 -14.7 6.7 -18.3 0 -4 5.6 -27.9 8.2 -34.8 4 -10.8 13.7 -30.3 18.5 -37 2.6 -3.7 10.8 -12.8 18.2 -20.2 7.5 -7.4 14.3 -14.4 15.1 -15.5 1.4 -1.8 1.2 -1.8 -2 0.2 -14.2 8.9 -30.7 24.3 -39.9 37.3 -9.7 13.8 -19.1 34.9 -23.5 53 -2 8.2 -5.6 32.9 -5.6 38.1 0 2.1 2.1 0.7 4.3 -2.8z"/>
  <path d="M256.5 260.9 c-12.2 -1.3 -19.2 -5.9 -34.7 -22.7 -8.1 -8.8 -10.2 -13 -11.5 -23.3 -0.7 -5.6 1.9 -16.7 5.3 -22.6 3.1 -5.4 3 -6.5 -0.6 -9.1 -3.7 -2.8 -4 -6.5 -0.7 -8.6 2.4 -1.7 16.6 -3.6 26.2 -3.6 3.3 0 8.5 -0.7 11.5 -1.5 3 -0.8 9.3 -1.5 13.9 -1.5 8.2 0 8.4 0.1 15 4.4 6.6 4.5 12.5 10.1 19.3 18.7 6.3 7.8 10.4 29 7.8 40 -1.9 8.2 -6.3 17.1 -9.9 20.1 -3.9 3.3 -11.5 6.8 -14.8 6.8 -1.3 0 -4 0.7 -5.9 1.5 -4.9 2 -11.5 2.5 -20.9 1.4z m16.6 -6.8 c3.5 -1 8.3 -2.4 10.6 -3 2.3 -0.6 5.6 -2.3 7.2 -3.7 7.3 -6.1 12.9 -22 11.1 -31.3 -0.5 -2.5 -2.1 -8 -3.6 -12.1 -2.4 -6.4 -3.7 -8.4 -9.7 -14.2 -5.2 -5 -8.6 -7.4 -14.1 -9.7 -9.6 -4 -15.2 -4.6 -26.2 -2.8 -12.7 2.1 -15.7 3.7 -21.9 12.1 -6.5 8.9 -6.9 9.7 -8.5 17.3 -1 4.9 -1 7.2 0 11.3 2 8.3 13.6 22.3 26.5 32.1 7.8 5.9 17.6 7.3 28.6 4z"/>
  <path d="M252.5 102 c-19.1 -0.7 -22.7 -2.1 -14.3 -5.5 5.8 -2.3 19.3 -2.1 29.9 0.5 4.5 1 8.7 2.4 9.2 2.9 1.3 1.3 -3.4 3.2 -7.1 2.9 -1.5 -0.1 -9.4 -0.5 -17.7 -0.8z"/>
 </g>
 <g fill="#7f7e77">
  <path d="M337.7 365.6 c-0.8 -2.2 0.3 -5.8 2.7 -8.6 16.7 -19.2 35.8 -52.8 44.3 -78 l3.5 -10.5 -0.6 -15.5 c-0.3 -8.5 -1.2 -18.4 -2 -22 -1.9 -8.2 -1.9 -9.2 -0.2 -11.6 4.4 -5.8 7.4 10.2 8.7 47.1 1.2 31.1 0.9 33.5 -6.6 49.3 -5.3 11.2 -13.4 22.3 -22.9 31.5 -13.2 12.7 -25.8 21.3 -26.9 18.3z"/>
  <path d="M86.6 266.2 c-0.9 -1.5 3.6 -36.1 6 -46.2 4.4 -17.9 13.8 -39.2 23.3 -52.7 5.6 -7.9 20.9 -24.4 25.7 -27.7 19.6 -13.4 29.9 -19.5 31.1 -18.2 0.3 0.2 -0.5 1.3 -1.7 2.3 -1.2 1 -3.2 4.1 -4.5 7 -1.8 3.9 -5.9 8.8 -16.7 19.5 -7.9 7.9 -16.5 17.3 -19.1 21 -4.8 6.6 -14.5 26.2 -18.5 37 -2.6 6.9 -8.2 30.8 -8.2 34.8 0 3.6 -3.5 13.2 -6.7 18.2 -1.4 2.4 -3.3 4 -5.1 4.4 -1.5 0.3 -3.2 0.7 -3.9 0.9 -0.7 0.2 -1.4 0.1 -1.7 -0.3z m16.4 -46.5 c7.3 -24 18.3 -49 25.3 -57.7 1.6 -1.9 0.8 -1.2 -1.8 1.5 -13.7 14.5 -28.2 46.8 -31.4 69.9 -0.6 3.8 -0.7 7.4 -0.4 8 0.9 1.4 2.6 -2.9 8.3 -21.7z"/>
  <path d="M251.7 258 c-5.4 -0.9 -12.1 -5.5 -20.9 -14.2 -15.4 -15.4 -19.3 -25.7 -15.4 -42 1.6 -6.6 1.4 -6.2 8.2 -15.4 6.1 -8.4 9.1 -10 21.8 -12.1 19.9 -3.3 33.9 0.5 46.3 12.5 6.3 6 7.3 7.6 10.1 15.3 4 11.4 4.8 18.5 2.8 27.7 -2.7 12.9 -9.4 22 -17.9 24.3 -2.3 0.6 -7.1 2 -10.6 3 -6.6 2 -15.9 2.3 -24.4 0.9z m23.3 -6.2 c11.9 -3.7 17.7 -8.5 21 -17.3 6.7 -17.6 0.2 -36.1 -16.6 -47.4 -10.1 -6.9 -19.2 -8.5 -31.9 -5.7 -8.2 1.7 -11.4 3.6 -17 9.8 -5.4 6 -6.9 9 -9 18.3 -1.4 5.8 -1.4 6.9 0 10.2 0.9 2.1 1.9 4 2.3 4.3 0.5 0.3 2.5 3.6 4.6 7.3 2.9 5.3 5.7 8.4 12.6 14.2 5.8 4.8 10.1 7.6 12.2 7.9 10 1.7 12 1.5 21.8 -1.6z"/>
 </g>
 <g fill="#878681">
  <path d="M350 353.1 c0 -1.1 1.2 -3.4 2.8 -5.3 4.6 -5.6 5 -6 11.4 -15 3.5 -4.8 7.5 -10.7 9 -13.1 4.1 -6.6 11 -14.7 12.5 -14.7 0.7 0 1.3 0.9 1.3 2.1 0 3 -5.7 15.8 -8.9 19.9 -1.5 1.9 -3.7 5.1 -4.8 7 -1.8 3 -7 8.1 -19.1 18.8 -3.1 2.7 -4.2 2.8 -4.2 0.3z"/>
  <path d="M256.5 257.3 c-8.5 -1 -9.8 -1.6 -18.5 -8.8 -6.9 -5.8 -9.7 -8.9 -12.6 -14.2 -2.1 -3.7 -4.4 -7.4 -5 -8 -4 -4.1 -4.1 -13.5 -0.4 -25.4 2.2 -7.4 9.8 -16.8 15.9 -19.8 9 -4.5 27.5 -5.6 36.5 -2.2 15.6 5.8 26.4 18.3 28.7 33.1 3.1 20 -3.7 35.7 -17.7 41 -12.2 4.5 -17.9 5.4 -26.9 4.3z m16 -7.9 c15.7 -4 20.2 -8.7 23.6 -24.4 2.1 -10 -2.5 -22.4 -11.5 -31 -10.2 -9.7 -21 -13.4 -34.1 -11.5 -9.7 1.4 -12.8 3 -18.4 9 -5.3 5.7 -7.8 11.2 -8.6 19.1 -0.8 6.8 -0.4 7.9 6.6 18.5 8.1 12.1 17.6 20.6 24.7 21.9 6 1.2 7.2 1.1 17.7 -1.6z"/>
  <path d="M92 245.5 c-4.1 -12.4 7.8 -50.4 23.6 -75.1 9.3 -14.6 38.4 -39.5 38.4 -32.8 0 0.8 -0.4 1.4 -1 1.4 -0.5 0 -2.8 2.6 -5.1 5.8 -2.4 3.1 -5.5 7.1 -7.1 8.7 -14.1 15.1 -25 36.8 -34.9 69.5 -7.5 24.8 -11.2 30.8 -13.9 22.5z m10.6 -29 c2.6 -8.8 5.8 -18.4 7.1 -21.4 1.3 -3 2.2 -5.6 2 -5.8 -1.5 -1.4 -14.1 32.7 -15.2 41.2 -1 7.8 0.8 3.7 6.1 -14z"/>
 </g>
 <g fill="#91918c">
  <path d="M251.8 254 c-7.4 -1.4 -16.4 -9.5 -25.2 -22.8 -7.6 -11.5 -8 -13.1 -6.2 -23.7 1.7 -9.6 4.3 -15 10.3 -20.7 5 -4.8 8.8 -6.3 19.9 -7.8 7.6 -0.9 10.1 -0.9 15.7 0.4 23.9 5.6 37.9 27.6 32.3 50.6 -3.6 14.4 -7.8 18.5 -23.1 22.4 -10 2.6 -16.6 3 -23.7 1.6z m20.8 -6.6 c13.5 -4.3 17.6 -8.4 20.4 -20.3 2.6 -10.9 -1 -23.1 -9.1 -30.9 -2.4 -2.3 -7.7 -5.9 -11.8 -7.9 -7 -3.6 -7.9 -3.8 -17 -3.8 -8.7 0 -10.1 0.3 -14.3 2.8 -4.7 2.7 -10.8 9.4 -12.2 13.2 -0.4 1.1 -1.4 5.3 -2.2 9.4 l-1.4 7.5 3.4 5 c1.8 2.8 4.8 7.4 6.5 10.3 4 6.4 10.9 12.8 16.4 15.4 5.7 2.6 12 2.4 21.3 -0.7z"/>
  <path d="M93.4 241.4 c-4 -15.9 14.9 -63.1 32.9 -82.2 5.7 -6 10.7 -9.2 10.7 -6.9 0 0.7 -1.8 3.8 -4.1 6.8 -8.2 11 -20.5 36.8 -24.8 52.1 -7.8 27.8 -12.8 38 -14.7 30.2z"/>
 </g>
 <g fill="#9d9c98">
  <path d="M247.3 250.5 c-6.2 -3.1 -12.6 -9.8 -17.7 -18.5 -2.1 -3.5 -4.6 -7.5 -5.7 -8.8 -1 -1.4 -1.9 -3.9 -1.9 -5.6 0 -3.3 2.4 -16.8 3.6 -20.1 1.4 -3.8 7.5 -10.5 12.2 -13.2 4.5 -2.7 5.3 -2.8 17.3 -2.8 12.6 0 12.6 0 20 3.8 14.4 7.3 20.9 16.5 21.7 31 0.8 13.7 -2.7 24.3 -9.5 29 -6.2 4.2 -18.4 7.7 -27.2 7.7 -6.2 0 -8.7 -0.5 -12.8 -2.5z m29.4 -11.2 c8.3 -4.2 9.8 -6.1 11.1 -14.5 1.8 -11.3 -3 -22 -13.1 -29.1 -11.2 -8 -17.1 -9.8 -25.7 -7.7 -6.1 1.5 -10 5.3 -14 13.5 -4.9 9.9 -4.8 12.6 0.3 23 5.3 10.7 9.6 15.1 18 18.5 5.7 2.4 6.6 2.5 11 1.3 2.7 -0.7 8.3 -2.9 12.4 -5z"/>
  <path d="M96.9 226.3 c-0.6 -6.9 4.2 -22.6 11.3 -36.7 3.9 -7.8 10.5 -17.2 11.5 -16.3 0.2 0.3 -2.5 7.9 -6 16.9 -3.5 8.9 -6.7 17.5 -7.1 18.9 -1.5 6.7 -6.9 18.9 -8.2 18.9 -0.8 0 -1.5 -0.8 -1.5 -1.7z"/>
 </g>
 <g fill="#c5c7c6">
  <path d="M250.3 246.1 c-3.4 -1.4 -8 -4.3 -10.1 -6.4 -4.9 -4.8 -12.7 -20.7 -12.6 -25.7 0.1 -9.6 7.8 -24.5 14.4 -27.7 5.3 -2.7 21.1 -2.5 26.5 0.4 13.4 7.1 20.1 15 22.5 26.6 1.3 6.4 0.1 17.7 -2.4 22.6 -2.4 4.6 -22.6 13.4 -29.9 13 -1.2 -0.1 -5 -1.3 -8.4 -2.8z m21.4 -13.4 c8.4 -4.5 9.2 -5.3 9.8 -8.5 1.1 -5.9 -3.7 -16.4 -10.7 -23.4 -7.6 -7.8 -11.2 -9.8 -17.2 -9.8 -4.3 0 -5.3 0.4 -8.1 3.5 -3.5 3.6 -5.9 9.8 -7 17.8 -0.5 3.8 -0.2 5.8 1.8 10 3.1 6.8 10.5 14.2 15.4 15.4 4.6 1.2 4.6 1.2 16 -5z"/>
 </g>
 <g fill="#dad9d6">
  <path d="M252.7 240.8 c-5 -1.3 -12.4 -8.9 -15.5 -15.7 -2.2 -4.8 -2.4 -6.2 -1.8 -13.1 0.8 -9.9 3 -16.2 7.1 -20.5 3.4 -3.7 5.3 -4.1 14.5 -3.6 5.9 0.4 8.5 1.9 15.8 8.8 9 8.6 13.7 20.2 12 29 l-1 5.1 -9.6 5.2 c-10.3 5.6 -14.9 6.7 -21.5 4.8z m12.1 -7 c6.7 -4.6 12.2 -9.8 12.2 -11.5 0 -2.3 -8.3 -16.6 -12.6 -21.7 -4.3 -5.2 -8 -7.1 -12.2 -6.1 -5.5 1.2 -8 5.6 -9.2 16.3 -1 9 0.2 12.8 6.4 19.9 3.1 3.6 5 4.7 10.4 6.2 0.2 0.1 2.4 -1.3 5 -3.1z"/>
 </g>
 <g fill="#f0f0ef">
  <path d="M253.3 238.9 c-3.9 -1.1 -10.7 -8.8 -12.9 -14.6 -1.4 -3.6 -1.5 -5.7 -0.6 -14.3 1.6 -15 4.6 -19 14.5 -19 6.2 0 9.3 1.7 14.2 7.9 5 6.4 12.5 20.6 12.5 23.6 0 3.2 -4 7.7 -11.5 13 -6.6 4.7 -9.5 5.3 -16.2 3.4z m11.3 -9.4 c5.5 -4.2 5.9 -5.8 3.2 -12.3 -2.6 -6.5 -8.2 -14.8 -10.8 -16.2 -3.1 -1.6 -6.8 -1.2 -8 1 -0.6 1.1 -1.3 5.5 -1.7 9.9 -0.5 7 -0.3 8.3 1.6 11.4 5.4 8.8 9.9 10.6 15.7 6.2z"/>
 </g>
 <g fill="#fdfdfc">
  <path d="M255.8 235.1 c-3.5 -0.8 -6 -2.9 -9.4 -8.1 -2.6 -3.9 -2.7 -4.4 -2.2 -14.8 0.7 -14.1 1.3 -15.2 8.4 -15.2 3 0 6.4 0.4 7.4 1 2.2 1.2 8.5 9.8 9.5 13.1 0.4 1.3 1.8 4.5 3.1 7.1 l2.4 4.8 -2.5 3.9 c-2.8 4.6 -9 9.2 -12 9 -1.1 -0.1 -3.2 -0.4 -4.7 -0.8z"/>
 </g>
</svg>